<?xml version="1.0" encoding="UTF-8" standalone="no"?>
<!-- Created with Inkscape (http://www.inkscape.org/) -->

<svg
   xmlns:dc="http://purl.org/dc/elements/1.1/"
   xmlns:cc="http://creativecommons.org/ns#"
   xmlns:rdf="http://www.w3.org/1999/02/22-rdf-syntax-ns#"
   xmlns:svg="http://www.w3.org/2000/svg"
   xmlns="http://www.w3.org/2000/svg"
   xmlns:xlink="http://www.w3.org/1999/xlink"
   xmlns:sodipodi="http://sodipodi.sourceforge.net/DTD/sodipodi-0.dtd"
   xmlns:inkscape="http://www.inkscape.org/namespaces/inkscape"
   width="237.36745"
   height="194.61801"
   id="svg5093"
   version="1.1"
   inkscape:version="0.48.4 r9939"
   sodipodi:docname="dem-to-lbm-mapping.pdf">
  <defs
     id="defs5095">
    <marker
       inkscape:stockid="Arrow1Lstart"
       orient="auto"
       refY="0"
       refX="0"
       id="Arrow1Lstart"
       style="overflow:visible">
      <path
         id="path4467"
         d="M 0,0 5,-5 -12.5,0 5,5 0,0 z"
         style="fill-rule:evenodd;stroke:#000000;stroke-width:1pt"
         transform="matrix(0.8,0,0,0.8,10,0)"
         inkscape:connector-curvature="0" />
    </marker>
    <marker
       inkscape:stockid="Arrow1Lstart"
       orient="auto"
       refY="0"
       refX="0"
       id="Arrow1Lstart-9"
       style="overflow:visible">
      <path
         inkscape:connector-curvature="0"
         id="path4467-4"
         d="M 0,0 5,-5 -12.5,0 5,5 0,0 z"
         style="fill-rule:evenodd;stroke:#000000;stroke-width:1pt"
         transform="matrix(0.8,0,0,0.8,10,0)" />
    </marker>
    <marker
       inkscape:stockid="Arrow1Lstart"
       orient="auto"
       refY="0"
       refX="0"
       id="Arrow1Lstart-6"
       style="overflow:visible">
      <path
         inkscape:connector-curvature="0"
         id="path4467-7"
         d="M 0,0 5,-5 -12.5,0 5,5 0,0 z"
         style="fill-rule:evenodd;stroke:#000000;stroke-width:1pt"
         transform="matrix(0.8,0,0,0.8,10,0)" />
    </marker>
    <marker
       inkscape:stockid="Arrow1Lstart"
       orient="auto"
       refY="0"
       refX="0"
       id="marker5851"
       style="overflow:visible">
      <path
         inkscape:connector-curvature="0"
         id="path5853"
         d="M 0,0 5,-5 -12.5,0 5,5 0,0 z"
         style="fill-rule:evenodd;stroke:#000000;stroke-width:1pt"
         transform="matrix(0.8,0,0,0.8,10,0)" />
    </marker>
  </defs>
  <sodipodi:namedview
     id="base"
     pagecolor="#ffffff"
     bordercolor="#666666"
     borderopacity="1.0"
     inkscape:pageopacity="0.0"
     inkscape:pageshadow="2"
     inkscape:zoom="5.6"
     inkscape:cx="140.90178"
     inkscape:cy="117.29381"
     inkscape:document-units="px"
     inkscape:current-layer="layer1"
     showgrid="true"
     showguides="false"
     inkscape:snap-global="true"
     inkscape:snap-object-midpoints="true"
     inkscape:snap-bbox="true"
     inkscape:snap-grids="true"
     inkscape:window-width="1627"
     inkscape:window-height="1026"
     inkscape:window-x="53"
     inkscape:window-y="24"
     inkscape:window-maximized="1"
     fit-margin-top="0"
     fit-margin-left="0"
     fit-margin-right="0"
     fit-margin-bottom="0">
    <inkscape:grid
       type="xygrid"
       id="grid5101"
       empspacing="5"
       visible="true"
       enabled="true"
       snapvisiblegridlinesonly="true"
       originx="-174.98855px"
       originy="-630.38198px" />
  </sodipodi:namedview>
  <metadata
     id="metadata5098">
    <rdf:RDF>
      <cc:Work
         rdf:about="">
        <dc:format>image/svg+xml</dc:format>
        <dc:type
           rdf:resource="http://purl.org/dc/dcmitype/StillImage" />
        <dc:title></dc:title>
      </cc:Work>
    </rdf:RDF>
  </metadata>
  <g
     inkscape:label="Layer 1"
     inkscape:groupmode="layer"
     id="layer1"
     transform="translate(-174.98855,-227.36218)">
    <path
       sodipodi:type="arc"
       style="fill:#000000;fill-opacity:0.27149323;stroke:none"
       id="path5874"
       sodipodi:cx="205"
       sodipodi:cy="257.36218"
       sodipodi:rx="5"
       sodipodi:ry="5"
       d="m 210,257.36218 c 0,2.76143 -2.23858,5 -5,5 -2.76142,0 -5,-2.23857 -5,-5 0,-2.76142 2.23858,-5 5,-5 2.76142,0 5,2.23858 5,5 z"
       transform="matrix(0.2,0,0,0.20000005,160,201.88973)"
       inkscape:tile-cx="202.5"
       inkscape:tile-cy="254.86218"
       inkscape:tile-w="5"
       inkscape:tile-h="5"
       inkscape:tile-x0="200"
       inkscape:tile-y0="252.36218" />
    <use
       x="0"
       y="0"
       inkscape:tiled-clone-of="#path5874"
       xlink:href="#path5874"
       transform="translate(0,15.000066)"
       id="use7278"
       style="fill:#000000;fill-opacity:0.23076926"
       width="744.09448"
       height="1052.3622" />
    <use
       x="0"
       y="0"
       inkscape:tiled-clone-of="#path5874"
       xlink:href="#path5874"
       transform="translate(0,30.000066)"
       id="use7280"
       style="fill:#000000;fill-opacity:0.23076926"
       width="744.09448"
       height="1052.3622" />
    <use
       x="0"
       y="0"
       inkscape:tiled-clone-of="#path5874"
       xlink:href="#path5874"
       transform="translate(0,45.000066)"
       id="use7282"
       style="fill:#000000;fill-opacity:0.23076926"
       width="744.09448"
       height="1052.3622" />
    <use
       x="0"
       y="0"
       inkscape:tiled-clone-of="#path5874"
       xlink:href="#path5874"
       transform="translate(0,60.000066)"
       id="use7284"
       style="fill:#000000;fill-opacity:0.23076926"
       width="744.09448"
       height="1052.3622" />
    <use
       x="0"
       y="0"
       inkscape:tiled-clone-of="#path5874"
       xlink:href="#path5874"
       transform="translate(0,75.000066)"
       id="use7286"
       style="fill:#000000;fill-opacity:0.23076926"
       width="744.09448"
       height="1052.3622" />
    <use
       x="0"
       y="0"
       inkscape:tiled-clone-of="#path5874"
       xlink:href="#path5874"
       transform="translate(0,90.000066)"
       id="use7288"
       style="fill:#000000;fill-opacity:0.23076926"
       width="744.09448"
       height="1052.3622" />
    <use
       x="0"
       y="0"
       inkscape:tiled-clone-of="#path5874"
       xlink:href="#path5874"
       transform="translate(0,105.00007)"
       id="use7290"
       style="fill:#000000;fill-opacity:0.23076926"
       width="744.09448"
       height="1052.3622" />
    <use
       x="0"
       y="0"
       inkscape:tiled-clone-of="#path5874"
       xlink:href="#path5874"
       transform="translate(0,120.00007)"
       id="use7292"
       style="fill:#000000;fill-opacity:0.23076926"
       width="744.09448"
       height="1052.3622" />
    <use
       x="0"
       y="0"
       inkscape:tiled-clone-of="#path5874"
       xlink:href="#path5874"
       transform="translate(0,135.00007)"
       id="use7294"
       style="fill:#000000;fill-opacity:0.23076926"
       width="744.09448"
       height="1052.3622" />
    <use
       x="0"
       y="0"
       inkscape:tiled-clone-of="#path5874"
       xlink:href="#path5874"
       transform="translate(15,6.6047895e-5)"
       id="use7296"
       style="fill:#000000;fill-opacity:0.23076926"
       width="744.09448"
       height="1052.3622" />
    <use
       x="0"
       y="0"
       inkscape:tiled-clone-of="#path5874"
       xlink:href="#path5874"
       transform="translate(15,15.000066)"
       id="use7298"
       style="fill:#000000;fill-opacity:0.23076926"
       width="744.09448"
       height="1052.3622" />
    <use
       x="0"
       y="0"
       inkscape:tiled-clone-of="#path5874"
       xlink:href="#path5874"
       transform="translate(15,30.000066)"
       id="use7300"
       style="fill:#000000;fill-opacity:0.23076926"
       width="744.09448"
       height="1052.3622" />
    <use
       x="0"
       y="0"
       inkscape:tiled-clone-of="#path5874"
       xlink:href="#path5874"
       transform="translate(15,45.000066)"
       id="use7302"
       style="fill:#000000;fill-opacity:0.23076926"
       width="744.09448"
       height="1052.3622" />
    <use
       x="0"
       y="0"
       inkscape:tiled-clone-of="#path5874"
       xlink:href="#path5874"
       transform="translate(15,60.000066)"
       id="use7304"
       style="fill:#000000;fill-opacity:0.23076926"
       width="744.09448"
       height="1052.3622" />
    <use
       x="0"
       y="0"
       inkscape:tiled-clone-of="#path5874"
       xlink:href="#path5874"
       transform="translate(15,75.000066)"
       id="use7306"
       style="fill:#000000;fill-opacity:0.23076926"
       width="744.09448"
       height="1052.3622" />
    <use
       x="0"
       y="0"
       inkscape:tiled-clone-of="#path5874"
       xlink:href="#path5874"
       transform="translate(15,90.000066)"
       id="use7308"
       style="fill:#000000;fill-opacity:0.23076926"
       width="744.09448"
       height="1052.3622" />
    <use
       x="0"
       y="0"
       inkscape:tiled-clone-of="#path5874"
       xlink:href="#path5874"
       transform="translate(15,105.00007)"
       id="use7310"
       style="fill:#000000;fill-opacity:0.23076926"
       width="744.09448"
       height="1052.3622" />
    <use
       x="0"
       y="0"
       inkscape:tiled-clone-of="#path5874"
       xlink:href="#path5874"
       transform="translate(15,120.00007)"
       id="use7312"
       style="fill:#000000;fill-opacity:0.23076926"
       width="744.09448"
       height="1052.3622" />
    <use
       x="0"
       y="0"
       inkscape:tiled-clone-of="#path5874"
       xlink:href="#path5874"
       transform="translate(15,135.00007)"
       id="use7314"
       style="fill:#000000;fill-opacity:0.23076926"
       width="744.09448"
       height="1052.3622" />
    <use
       x="0"
       y="0"
       inkscape:tiled-clone-of="#path5874"
       xlink:href="#path5874"
       transform="translate(30,6.6047895e-5)"
       id="use7316"
       style="fill:#000000;fill-opacity:0.23076926"
       width="744.09448"
       height="1052.3622" />
    <use
       x="0"
       y="0"
       inkscape:tiled-clone-of="#path5874"
       xlink:href="#path5874"
       transform="translate(30,15.000066)"
       id="use7318"
       style="fill:#000000;fill-opacity:0.23076926"
       width="744.09448"
       height="1052.3622" />
    <use
       x="0"
       y="0"
       inkscape:tiled-clone-of="#path5874"
       xlink:href="#path5874"
       transform="translate(30,30.000066)"
       id="use7320"
       style="fill:#000000;fill-opacity:0.23076926"
       width="744.09448"
       height="1052.3622" />
    <use
       x="0"
       y="0"
       inkscape:tiled-clone-of="#path5874"
       xlink:href="#path5874"
       transform="translate(30,45.000066)"
       id="use7322"
       style="fill:#000000;fill-opacity:0.23076926"
       width="744.09448"
       height="1052.3622" />
    <use
       x="0"
       y="0"
       inkscape:tiled-clone-of="#path5874"
       xlink:href="#path5874"
       transform="translate(30,60.000066)"
       id="use7324"
       style="fill:#000000;fill-opacity:0.23076926"
       width="744.09448"
       height="1052.3622" />
    <use
       x="0"
       y="0"
       inkscape:tiled-clone-of="#path5874"
       xlink:href="#path5874"
       transform="translate(30,75.000066)"
       id="use7326"
       style="fill:#000000;fill-opacity:0.23076926"
       width="744.09448"
       height="1052.3622" />
    <use
       x="0"
       y="0"
       inkscape:tiled-clone-of="#path5874"
       xlink:href="#path5874"
       transform="translate(30,90.000066)"
       id="use7328"
       style="fill:#000000;fill-opacity:0.23076926"
       width="744.09448"
       height="1052.3622" />
    <use
       x="0"
       y="0"
       inkscape:tiled-clone-of="#path5874"
       xlink:href="#path5874"
       transform="translate(30,105.00007)"
       id="use7330"
       style="fill:#000000;fill-opacity:0.23076926"
       width="744.09448"
       height="1052.3622" />
    <use
       x="0"
       y="0"
       inkscape:tiled-clone-of="#path5874"
       xlink:href="#path5874"
       transform="translate(30,120.00007)"
       id="use7332"
       style="fill:#000000;fill-opacity:0.23076926"
       width="744.09448"
       height="1052.3622" />
    <use
       x="0"
       y="0"
       inkscape:tiled-clone-of="#path5874"
       xlink:href="#path5874"
       transform="translate(30,135.00007)"
       id="use7334"
       style="fill:#000000;fill-opacity:0.23076926"
       width="744.09448"
       height="1052.3622" />
    <use
       x="0"
       y="0"
       inkscape:tiled-clone-of="#path5874"
       xlink:href="#path5874"
       transform="translate(45,6.6047895e-5)"
       id="use7336"
       style="fill:#000000;fill-opacity:0.23076926"
       width="744.09448"
       height="1052.3622" />
    <use
       x="0"
       y="0"
       inkscape:tiled-clone-of="#path5874"
       xlink:href="#path5874"
       transform="translate(45,15.000066)"
       id="use7338"
       style="fill:#000000;fill-opacity:0.23076926"
       width="744.09448"
       height="1052.3622" />
    <use
       x="0"
       y="0"
       inkscape:tiled-clone-of="#path5874"
       xlink:href="#path5874"
       transform="translate(45,30.000066)"
       id="use7340"
       style="fill:#000000;fill-opacity:0.23076926"
       width="744.09448"
       height="1052.3622" />
    <path
       inkscape:tile-y0="252.36218"
       inkscape:tile-x0="200"
       transform="matrix(0.2,0,0,0.20000005,205,246.8898)"
       d="m 210,257.36218 c 0,2.76143 -2.23858,5 -5,5 -2.76142,0 -5,-2.23857 -5,-5 0,-2.76142 2.23858,-5 5,-5 2.76142,0 5,2.23858 5,5 z"
       sodipodi:ry="5"
       sodipodi:rx="5"
       sodipodi:cy="257.36218"
       sodipodi:cx="205"
       id="use7342"
       style="fill:#000000;fill-opacity:0.27149323;stroke:none"
       sodipodi:type="arc" />
    <path
       inkscape:tile-y0="252.36218"
       inkscape:tile-x0="200"
       transform="matrix(0.2,0,0,0.20000005,205,261.8898)"
       d="m 210,257.36218 c 0,2.76143 -2.23858,5 -5,5 -2.76142,0 -5,-2.23857 -5,-5 0,-2.76142 2.23858,-5 5,-5 2.76142,0 5,2.23858 5,5 z"
       sodipodi:ry="5"
       sodipodi:rx="5"
       sodipodi:cy="257.36218"
       sodipodi:cx="205"
       id="use7344"
       style="fill:#000000;fill-opacity:0.27149323;stroke:none"
       sodipodi:type="arc" />
    <path
       inkscape:tile-y0="252.36218"
       inkscape:tile-x0="200"
       transform="matrix(0.2,0,0,0.20000005,205,276.8898)"
       d="m 210,257.36218 c 0,2.76143 -2.23858,5 -5,5 -2.76142,0 -5,-2.23857 -5,-5 0,-2.76142 2.23858,-5 5,-5 2.76142,0 5,2.23858 5,5 z"
       sodipodi:ry="5"
       sodipodi:rx="5"
       sodipodi:cy="257.36218"
       sodipodi:cx="205"
       id="use7346"
       style="fill:#000000;fill-opacity:0.27149323;stroke:none"
       sodipodi:type="arc" />
    <path
       inkscape:tile-y0="252.36218"
       inkscape:tile-x0="200"
       transform="matrix(0.2,0,0,0.20000005,205,291.8898)"
       d="m 210,257.36218 c 0,2.76143 -2.23858,5 -5,5 -2.76142,0 -5,-2.23857 -5,-5 0,-2.76142 2.23858,-5 5,-5 2.76142,0 5,2.23858 5,5 z"
       sodipodi:ry="5"
       sodipodi:rx="5"
       sodipodi:cy="257.36218"
       sodipodi:cx="205"
       id="use7348"
       style="fill:#000000;fill-opacity:0.27149323;stroke:none"
       sodipodi:type="arc" />
    <path
       inkscape:tile-y0="252.36218"
       inkscape:tile-x0="200"
       transform="matrix(0.2,0,0,0.20000005,205,306.8898)"
       d="m 210,257.36218 c 0,2.76143 -2.23858,5 -5,5 -2.76142,0 -5,-2.23857 -5,-5 0,-2.76142 2.23858,-5 5,-5 2.76142,0 5,2.23858 5,5 z"
       sodipodi:ry="5"
       sodipodi:rx="5"
       sodipodi:cy="257.36218"
       sodipodi:cx="205"
       id="use7350"
       style="fill:#ff0000;fill-opacity:0.74208147;stroke:none"
       sodipodi:type="arc" />
    <path
       inkscape:tile-y0="252.36218"
       inkscape:tile-x0="200"
       transform="matrix(0.2,0,0,0.20000005,205,321.8898)"
       d="m 210,257.36218 c 0,2.76143 -2.23858,5 -5,5 -2.76142,0 -5,-2.23857 -5,-5 0,-2.76142 2.23858,-5 5,-5 2.76142,0 5,2.23858 5,5 z"
       sodipodi:ry="5"
       sodipodi:rx="5"
       sodipodi:cy="257.36218"
       sodipodi:cx="205"
       id="use7352"
       style="fill:#000000;fill-opacity:0.27149323;stroke:none"
       sodipodi:type="arc" />
    <path
       inkscape:tile-y0="252.36218"
       inkscape:tile-x0="200"
       transform="matrix(0.2,0,0,0.20000005,205,336.8898)"
       d="m 210,257.36218 c 0,2.76143 -2.23858,5 -5,5 -2.76142,0 -5,-2.23857 -5,-5 0,-2.76142 2.23858,-5 5,-5 2.76142,0 5,2.23858 5,5 z"
       sodipodi:ry="5"
       sodipodi:rx="5"
       sodipodi:cy="257.36218"
       sodipodi:cx="205"
       id="use7354"
       style="fill:#000000;fill-opacity:0.27149323;stroke:none"
       sodipodi:type="arc" />
    <use
       x="0"
       y="0"
       inkscape:tiled-clone-of="#path5874"
       xlink:href="#path5874"
       transform="translate(60,6.6047895e-5)"
       id="use7356"
       style="fill:#000000;fill-opacity:0.23076926"
       width="744.09448"
       height="1052.3622" />
    <use
       x="0"
       y="0"
       inkscape:tiled-clone-of="#path5874"
       xlink:href="#path5874"
       transform="translate(60,15.000066)"
       id="use7358"
       style="fill:#000000;fill-opacity:0.23076926"
       width="744.09448"
       height="1052.3622" />
    <use
       x="0"
       y="0"
       inkscape:tiled-clone-of="#path5874"
       xlink:href="#path5874"
       transform="translate(60,30.000066)"
       id="use7360"
       style="fill:#000000;fill-opacity:0.23076926"
       width="744.09448"
       height="1052.3622" />
    <path
       inkscape:tile-y0="252.36218"
       inkscape:tile-x0="200"
       transform="matrix(0.2,0,0,0.20000005,220,246.8898)"
       d="m 210,257.36218 c 0,2.76143 -2.23858,5 -5,5 -2.76142,0 -5,-2.23857 -5,-5 0,-2.76142 2.23858,-5 5,-5 2.76142,0 5,2.23858 5,5 z"
       sodipodi:ry="5"
       sodipodi:rx="5"
       sodipodi:cy="257.36218"
       sodipodi:cx="205"
       id="use7362"
       style="fill:#000000;fill-opacity:0.27149323;stroke:none"
       sodipodi:type="arc" />
    <path
       inkscape:tile-y0="252.36218"
       inkscape:tile-x0="200"
       transform="matrix(0.2,0,0,0.20000005,220,261.8898)"
       d="m 210,257.36218 c 0,2.76143 -2.23858,5 -5,5 -2.76142,0 -5,-2.23857 -5,-5 0,-2.76142 2.23858,-5 5,-5 2.76142,0 5,2.23858 5,5 z"
       sodipodi:ry="5"
       sodipodi:rx="5"
       sodipodi:cy="257.36218"
       sodipodi:cx="205"
       id="use7364"
       style="fill:#000000;fill-opacity:0.27149323;stroke:none"
       sodipodi:type="arc" />
    <path
       inkscape:tile-y0="252.36218"
       inkscape:tile-x0="200"
       transform="matrix(0.2,0,0,0.20000005,220,276.8898)"
       d="m 210,257.36218 c 0,2.76143 -2.23858,5 -5,5 -2.76142,0 -5,-2.23857 -5,-5 0,-2.76142 2.23858,-5 5,-5 2.76142,0 5,2.23858 5,5 z"
       sodipodi:ry="5"
       sodipodi:rx="5"
       sodipodi:cy="257.36218"
       sodipodi:cx="205"
       id="use7366"
       style="fill:#ff0000;fill-opacity:0.74208147;stroke:none"
       sodipodi:type="arc" />
    <path
       inkscape:tile-y0="252.36218"
       inkscape:tile-x0="200"
       transform="matrix(0.2,0,0,0.20000005,220,291.8898)"
       d="m 210,257.36218 c 0,2.76143 -2.23858,5 -5,5 -2.76142,0 -5,-2.23857 -5,-5 0,-2.76142 2.23858,-5 5,-5 2.76142,0 5,2.23858 5,5 z"
       sodipodi:ry="5"
       sodipodi:rx="5"
       sodipodi:cy="257.36218"
       sodipodi:cx="205"
       id="use7368"
       style="fill:#ff0000;fill-opacity:0.74208147;stroke:none"
       sodipodi:type="arc" />
    <path
       inkscape:tile-y0="252.36218"
       inkscape:tile-x0="200"
       transform="matrix(0.2,0,0,0.20000005,220,306.8898)"
       d="m 210,257.36218 c 0,2.76143 -2.23858,5 -5,5 -2.76142,0 -5,-2.23857 -5,-5 0,-2.76142 2.23858,-5 5,-5 2.76142,0 5,2.23858 5,5 z"
       sodipodi:ry="5"
       sodipodi:rx="5"
       sodipodi:cy="257.36218"
       sodipodi:cx="205"
       id="use7370"
       style="fill:#ff0000;fill-opacity:0.74208147;stroke:none"
       sodipodi:type="arc" />
    <path
       inkscape:tile-y0="252.36218"
       inkscape:tile-x0="200"
       transform="matrix(0.2,0,0,0.20000005,220,321.8898)"
       d="m 210,257.36218 c 0,2.76143 -2.23858,5 -5,5 -2.76142,0 -5,-2.23857 -5,-5 0,-2.76142 2.23858,-5 5,-5 2.76142,0 5,2.23858 5,5 z"
       sodipodi:ry="5"
       sodipodi:rx="5"
       sodipodi:cy="257.36218"
       sodipodi:cx="205"
       id="use7372"
       style="fill:#ff0000;fill-opacity:0.74208147;stroke:none"
       sodipodi:type="arc" />
    <path
       inkscape:tile-y0="252.36218"
       inkscape:tile-x0="200"
       transform="matrix(0.2,0,0,0.20000005,220,336.8898)"
       d="m 210,257.36218 c 0,2.76143 -2.23858,5 -5,5 -2.76142,0 -5,-2.23857 -5,-5 0,-2.76142 2.23858,-5 5,-5 2.76142,0 5,2.23858 5,5 z"
       sodipodi:ry="5"
       sodipodi:rx="5"
       sodipodi:cy="257.36218"
       sodipodi:cx="205"
       id="use7374"
       style="fill:#ff0000;fill-opacity:0.74208147;stroke:none"
       sodipodi:type="arc" />
    <use
       x="0"
       y="0"
       inkscape:tiled-clone-of="#path5874"
       xlink:href="#path5874"
       transform="translate(75,6.6047895e-5)"
       id="use7376"
       style="fill:#000000;fill-opacity:0.23076926"
       width="744.09448"
       height="1052.3622" />
    <use
       x="0"
       y="0"
       inkscape:tiled-clone-of="#path5874"
       xlink:href="#path5874"
       transform="translate(75,15.000066)"
       id="use7378"
       style="fill:#000000;fill-opacity:0.23076926"
       width="744.09448"
       height="1052.3622" />
    <use
       x="0"
       y="0"
       inkscape:tiled-clone-of="#path5874"
       xlink:href="#path5874"
       transform="translate(75,30.000066)"
       id="use7380"
       style="fill:#000000;fill-opacity:0.23076926"
       width="744.09448"
       height="1052.3622" />
    <path
       inkscape:tile-y0="252.36218"
       inkscape:tile-x0="200"
       transform="matrix(0.2,0,0,0.20000005,235,246.8898)"
       d="m 210,257.36218 c 0,2.76143 -2.23858,5 -5,5 -2.76142,0 -5,-2.23857 -5,-5 0,-2.76142 2.23858,-5 5,-5 2.76142,0 5,2.23858 5,5 z"
       sodipodi:ry="5"
       sodipodi:rx="5"
       sodipodi:cy="257.36218"
       sodipodi:cx="205"
       id="use7382"
       style="fill:#000000;fill-opacity:0.27149323;stroke:none"
       sodipodi:type="arc" />
    <path
       inkscape:tile-y0="252.36218"
       inkscape:tile-x0="200"
       transform="matrix(0.2,0,0,0.20000005,235,261.8898)"
       d="m 210,257.36218 c 0,2.76143 -2.23858,5 -5,5 -2.76142,0 -5,-2.23857 -5,-5 0,-2.76142 2.23858,-5 5,-5 2.76142,0 5,2.23858 5,5 z"
       sodipodi:ry="5"
       sodipodi:rx="5"
       sodipodi:cy="257.36218"
       sodipodi:cx="205"
       id="use7384"
       style="fill:#ff0000;fill-opacity:0.74208147;stroke:none"
       sodipodi:type="arc" />
    <path
       inkscape:tile-y0="252.36218"
       inkscape:tile-x0="200"
       transform="matrix(0.2,0,0,0.20000005,235,276.8898)"
       d="m 210,257.36218 c 0,2.76143 -2.23858,5 -5,5 -2.76142,0 -5,-2.23857 -5,-5 0,-2.76142 2.23858,-5 5,-5 2.76142,0 5,2.23858 5,5 z"
       sodipodi:ry="5"
       sodipodi:rx="5"
       sodipodi:cy="257.36218"
       sodipodi:cx="205"
       id="use7386"
       style="fill:#ff0000;fill-opacity:0.74208147;stroke:none"
       sodipodi:type="arc" />
    <path
       inkscape:tile-y0="252.36218"
       inkscape:tile-x0="200"
       transform="matrix(0.2,0,0,0.20000005,235,291.8898)"
       d="m 210,257.36218 c 0,2.76143 -2.23858,5 -5,5 -2.76142,0 -5,-2.23857 -5,-5 0,-2.76142 2.23858,-5 5,-5 2.76142,0 5,2.23858 5,5 z"
       sodipodi:ry="5"
       sodipodi:rx="5"
       sodipodi:cy="257.36218"
       sodipodi:cx="205"
       id="use7388"
       style="fill:#ff0000;fill-opacity:0.74208147;stroke:none"
       sodipodi:type="arc" />
    <path
       inkscape:tile-y0="252.36218"
       inkscape:tile-x0="200"
       transform="matrix(0.2,0,0,0.20000005,235,306.8898)"
       d="m 210,257.36218 c 0,2.76143 -2.23858,5 -5,5 -2.76142,0 -5,-2.23857 -5,-5 0,-2.76142 2.23858,-5 5,-5 2.76142,0 5,2.23858 5,5 z"
       sodipodi:ry="5"
       sodipodi:rx="5"
       sodipodi:cy="257.36218"
       sodipodi:cx="205"
       id="use7390"
       style="fill:#ff0000;fill-opacity:0.74208147;stroke:none"
       sodipodi:type="arc" />
    <path
       inkscape:tile-y0="252.36218"
       inkscape:tile-x0="200"
       transform="matrix(0.2,0,0,0.20000005,235,321.8898)"
       d="m 210,257.36218 c 0,2.76143 -2.23858,5 -5,5 -2.76142,0 -5,-2.23857 -5,-5 0,-2.76142 2.23858,-5 5,-5 2.76142,0 5,2.23858 5,5 z"
       sodipodi:ry="5"
       sodipodi:rx="5"
       sodipodi:cy="257.36218"
       sodipodi:cx="205"
       id="use7392"
       style="fill:#ff0000;fill-opacity:0.74208147;stroke:none"
       sodipodi:type="arc" />
    <path
       inkscape:tile-y0="252.36218"
       inkscape:tile-x0="200"
       transform="matrix(0.2,0,0,0.20000005,235,336.8898)"
       d="m 210,257.36218 c 0,2.76143 -2.23858,5 -5,5 -2.76142,0 -5,-2.23857 -5,-5 0,-2.76142 2.23858,-5 5,-5 2.76142,0 5,2.23858 5,5 z"
       sodipodi:ry="5"
       sodipodi:rx="5"
       sodipodi:cy="257.36218"
       sodipodi:cx="205"
       id="use7394"
       style="fill:#ff0000;fill-opacity:0.74208147;stroke:none"
       sodipodi:type="arc" />
    <use
       x="0"
       y="0"
       inkscape:tiled-clone-of="#path5874"
       xlink:href="#path5874"
       transform="translate(90,6.6047895e-5)"
       id="use7396"
       style="fill:#000000;fill-opacity:0.23076926"
       width="744.09448"
       height="1052.3622" />
    <use
       x="0"
       y="0"
       inkscape:tiled-clone-of="#path5874"
       xlink:href="#path5874"
       transform="translate(90,15.000066)"
       id="use7398"
       style="fill:#000000;fill-opacity:0.23076926"
       width="744.09448"
       height="1052.3622" />
    <use
       x="0"
       y="0"
       inkscape:tiled-clone-of="#path5874"
       xlink:href="#path5874"
       transform="translate(90,30.000066)"
       id="use7400"
       style="fill:#000000;fill-opacity:0.23076926"
       width="744.09448"
       height="1052.3622" />
    <path
       inkscape:tile-y0="252.36218"
       inkscape:tile-x0="200"
       transform="matrix(0.2,0,0,0.20000005,250,246.8898)"
       d="m 210,257.36218 c 0,2.76143 -2.23858,5 -5,5 -2.76142,0 -5,-2.23857 -5,-5 0,-2.76142 2.23858,-5 5,-5 2.76142,0 5,2.23858 5,5 z"
       sodipodi:ry="5"
       sodipodi:rx="5"
       sodipodi:cy="257.36218"
       sodipodi:cx="205"
       id="use7402"
       style="fill:#000000;fill-opacity:0.27149323;stroke:none"
       sodipodi:type="arc" />
    <path
       inkscape:tile-y0="252.36218"
       inkscape:tile-x0="200"
       transform="matrix(0.2,0,0,0.20000005,250,261.8898)"
       d="m 210,257.36218 c 0,2.76143 -2.23858,5 -5,5 -2.76142,0 -5,-2.23857 -5,-5 0,-2.76142 2.23858,-5 5,-5 2.76142,0 5,2.23858 5,5 z"
       sodipodi:ry="5"
       sodipodi:rx="5"
       sodipodi:cy="257.36218"
       sodipodi:cx="205"
       id="use7404"
       style="fill:#ff0000;fill-opacity:0.74208147;stroke:none"
       sodipodi:type="arc" />
    <path
       inkscape:tile-y0="252.36218"
       inkscape:tile-x0="200"
       transform="matrix(0.2,0,0,0.20000005,250,276.8898)"
       d="m 210,257.36218 c 0,2.76143 -2.23858,5 -5,5 -2.76142,0 -5,-2.23857 -5,-5 0,-2.76142 2.23858,-5 5,-5 2.76142,0 5,2.23858 5,5 z"
       sodipodi:ry="5"
       sodipodi:rx="5"
       sodipodi:cy="257.36218"
       sodipodi:cx="205"
       id="use7406"
       style="fill:#ff0000;fill-opacity:0.74208147;stroke:none"
       sodipodi:type="arc" />
    <path
       inkscape:tile-y0="252.36218"
       inkscape:tile-x0="200"
       transform="matrix(0.2,0,0,0.20000005,250,291.8898)"
       d="m 210,257.36218 c 0,2.76143 -2.23858,5 -5,5 -2.76142,0 -5,-2.23857 -5,-5 0,-2.76142 2.23858,-5 5,-5 2.76142,0 5,2.23858 5,5 z"
       sodipodi:ry="5"
       sodipodi:rx="5"
       sodipodi:cy="257.36218"
       sodipodi:cx="205"
       id="use7408"
       style="fill:#ff0000;fill-opacity:0.74208147;stroke:none"
       sodipodi:type="arc" />
    <path
       inkscape:tile-y0="252.36218"
       inkscape:tile-x0="200"
       transform="matrix(0.2,0,0,0.20000005,250,306.8898)"
       d="m 210,257.36218 c 0,2.76143 -2.23858,5 -5,5 -2.76142,0 -5,-2.23857 -5,-5 0,-2.76142 2.23858,-5 5,-5 2.76142,0 5,2.23858 5,5 z"
       sodipodi:ry="5"
       sodipodi:rx="5"
       sodipodi:cy="257.36218"
       sodipodi:cx="205"
       id="use7410"
       style="fill:#ff0000;fill-opacity:0.74208147;stroke:none"
       sodipodi:type="arc" />
    <path
       inkscape:tile-y0="252.36218"
       inkscape:tile-x0="200"
       transform="matrix(0.2,0,0,0.20000005,250,321.8898)"
       d="m 210,257.36218 c 0,2.76143 -2.23858,5 -5,5 -2.76142,0 -5,-2.23857 -5,-5 0,-2.76142 2.23858,-5 5,-5 2.76142,0 5,2.23858 5,5 z"
       sodipodi:ry="5"
       sodipodi:rx="5"
       sodipodi:cy="257.36218"
       sodipodi:cx="205"
       id="use7412"
       style="fill:#ff0000;fill-opacity:0.74208147;stroke:none"
       sodipodi:type="arc" />
    <path
       inkscape:tile-y0="252.36218"
       inkscape:tile-x0="200"
       transform="matrix(0.2,0,0,0.20000005,250,336.8898)"
       d="m 210,257.36218 c 0,2.76143 -2.23858,5 -5,5 -2.76142,0 -5,-2.23857 -5,-5 0,-2.76142 2.23858,-5 5,-5 2.76142,0 5,2.23858 5,5 z"
       sodipodi:ry="5"
       sodipodi:rx="5"
       sodipodi:cy="257.36218"
       sodipodi:cx="205"
       id="use7414"
       style="fill:#ff0000;fill-opacity:0.74208147;stroke:none"
       sodipodi:type="arc" />
    <use
       x="0"
       y="0"
       inkscape:tiled-clone-of="#path5874"
       xlink:href="#path5874"
       transform="translate(105,6.6047895e-5)"
       id="use7416"
       style="fill:#000000;fill-opacity:0.23076926"
       width="744.09448"
       height="1052.3622" />
    <use
       x="0"
       y="0"
       inkscape:tiled-clone-of="#path5874"
       xlink:href="#path5874"
       transform="translate(105,15.000066)"
       id="use7418"
       style="fill:#000000;fill-opacity:0.23076926"
       width="744.09448"
       height="1052.3622" />
    <use
       x="0"
       y="0"
       inkscape:tiled-clone-of="#path5874"
       xlink:href="#path5874"
       transform="translate(105,30.000066)"
       id="use7420"
       style="fill:#000000;fill-opacity:0.23076926"
       width="744.09448"
       height="1052.3622" />
    <path
       inkscape:tile-y0="252.36218"
       inkscape:tile-x0="200"
       transform="matrix(0.2,0,0,0.20000005,265,246.8898)"
       d="m 210,257.36218 c 0,2.76143 -2.23858,5 -5,5 -2.76142,0 -5,-2.23857 -5,-5 0,-2.76142 2.23858,-5 5,-5 2.76142,0 5,2.23858 5,5 z"
       sodipodi:ry="5"
       sodipodi:rx="5"
       sodipodi:cy="257.36218"
       sodipodi:cx="205"
       id="use7422"
       style="fill:#ff0000;fill-opacity:0.74208147;stroke:none"
       sodipodi:type="arc" />
    <path
       inkscape:tile-y0="252.36218"
       inkscape:tile-x0="200"
       transform="matrix(0.2,0,0,0.20000005,265,261.8898)"
       d="m 210,257.36218 c 0,2.76143 -2.23858,5 -5,5 -2.76142,0 -5,-2.23857 -5,-5 0,-2.76142 2.23858,-5 5,-5 2.76142,0 5,2.23858 5,5 z"
       sodipodi:ry="5"
       sodipodi:rx="5"
       sodipodi:cy="257.36218"
       sodipodi:cx="205"
       id="use7424"
       style="fill:#ff0000;fill-opacity:0.74208147;stroke:none"
       sodipodi:type="arc" />
    <path
       inkscape:tile-y0="252.36218"
       inkscape:tile-x0="200"
       transform="matrix(0.2,0,0,0.20000005,265,276.8898)"
       d="m 210,257.36218 c 0,2.76143 -2.23858,5 -5,5 -2.76142,0 -5,-2.23857 -5,-5 0,-2.76142 2.23858,-5 5,-5 2.76142,0 5,2.23858 5,5 z"
       sodipodi:ry="5"
       sodipodi:rx="5"
       sodipodi:cy="257.36218"
       sodipodi:cx="205"
       id="use7426"
       style="fill:#ff0000;fill-opacity:0.74208147;stroke:none"
       sodipodi:type="arc" />
    <path
       inkscape:tile-y0="252.36218"
       inkscape:tile-x0="200"
       transform="matrix(0.2,0,0,0.20000005,265,291.8898)"
       d="m 210,257.36218 c 0,2.76143 -2.23858,5 -5,5 -2.76142,0 -5,-2.23857 -5,-5 0,-2.76142 2.23858,-5 5,-5 2.76142,0 5,2.23858 5,5 z"
       sodipodi:ry="5"
       sodipodi:rx="5"
       sodipodi:cy="257.36218"
       sodipodi:cx="205"
       id="use7428"
       style="fill:#ff0000;fill-opacity:0.74208147;stroke:none"
       sodipodi:type="arc" />
    <path
       inkscape:tile-y0="252.36218"
       inkscape:tile-x0="200"
       transform="matrix(0.2,0,0,0.20000005,265,306.8898)"
       d="m 210,257.36218 c 0,2.76143 -2.23858,5 -5,5 -2.76142,0 -5,-2.23857 -5,-5 0,-2.76142 2.23858,-5 5,-5 2.76142,0 5,2.23858 5,5 z"
       sodipodi:ry="5"
       sodipodi:rx="5"
       sodipodi:cy="257.36218"
       sodipodi:cx="205"
       id="use7430"
       style="fill:#ff0000;fill-opacity:0.74208147;stroke:none"
       sodipodi:type="arc" />
    <path
       inkscape:tile-y0="252.36218"
       inkscape:tile-x0="200"
       transform="matrix(0.2,0,0,0.20000005,265,321.8898)"
       d="m 210,257.36218 c 0,2.76143 -2.23858,5 -5,5 -2.76142,0 -5,-2.23857 -5,-5 0,-2.76142 2.23858,-5 5,-5 2.76142,0 5,2.23858 5,5 z"
       sodipodi:ry="5"
       sodipodi:rx="5"
       sodipodi:cy="257.36218"
       sodipodi:cx="205"
       id="use7432"
       style="fill:#ff0000;fill-opacity:0.74208147;stroke:none"
       sodipodi:type="arc" />
    <path
       inkscape:tile-y0="252.36218"
       inkscape:tile-x0="200"
       transform="matrix(0.2,0,0,0.20000005,265,336.8898)"
       d="m 210,257.36218 c 0,2.76143 -2.23858,5 -5,5 -2.76142,0 -5,-2.23857 -5,-5 0,-2.76142 2.23858,-5 5,-5 2.76142,0 5,2.23858 5,5 z"
       sodipodi:ry="5"
       sodipodi:rx="5"
       sodipodi:cy="257.36218"
       sodipodi:cx="205"
       id="use7434"
       style="fill:#ff0000;fill-opacity:0.74208147;stroke:none"
       sodipodi:type="arc" />
    <use
       x="0"
       y="0"
       inkscape:tiled-clone-of="#path5874"
       xlink:href="#path5874"
       transform="translate(120,6.6047895e-5)"
       id="use7436"
       style="fill:#000000;fill-opacity:0.23076926"
       width="744.09448"
       height="1052.3622" />
    <use
       x="0"
       y="0"
       inkscape:tiled-clone-of="#path5874"
       xlink:href="#path5874"
       transform="translate(120,15.000066)"
       id="use7438"
       style="fill:#000000;fill-opacity:0.23076926"
       width="744.09448"
       height="1052.3622" />
    <use
       x="0"
       y="0"
       inkscape:tiled-clone-of="#path5874"
       xlink:href="#path5874"
       transform="translate(120,30.000066)"
       id="use7440"
       style="fill:#000000;fill-opacity:0.23076926"
       width="744.09448"
       height="1052.3622" />
    <path
       inkscape:tile-y0="252.36218"
       inkscape:tile-x0="200"
       transform="matrix(0.2,0,0,0.20000005,280,246.8898)"
       d="m 210,257.36218 c 0,2.76143 -2.23858,5 -5,5 -2.76142,0 -5,-2.23857 -5,-5 0,-2.76142 2.23858,-5 5,-5 2.76142,0 5,2.23858 5,5 z"
       sodipodi:ry="5"
       sodipodi:rx="5"
       sodipodi:cy="257.36218"
       sodipodi:cx="205"
       id="use7442"
       style="fill:#000000;fill-opacity:0.27149323;stroke:none"
       sodipodi:type="arc" />
    <path
       inkscape:tile-y0="252.36218"
       inkscape:tile-x0="200"
       transform="matrix(0.2,0,0,0.20000005,280,261.8898)"
       d="m 210,257.36218 c 0,2.76143 -2.23858,5 -5,5 -2.76142,0 -5,-2.23857 -5,-5 0,-2.76142 2.23858,-5 5,-5 2.76142,0 5,2.23858 5,5 z"
       sodipodi:ry="5"
       sodipodi:rx="5"
       sodipodi:cy="257.36218"
       sodipodi:cx="205"
       id="use7444"
       style="fill:#ff0000;fill-opacity:0.74208147;stroke:none"
       sodipodi:type="arc" />
    <path
       inkscape:tile-y0="252.36218"
       inkscape:tile-x0="200"
       transform="matrix(0.2,0,0,0.20000005,280,276.8898)"
       d="m 210,257.36218 c 0,2.76143 -2.23858,5 -5,5 -2.76142,0 -5,-2.23857 -5,-5 0,-2.76142 2.23858,-5 5,-5 2.76142,0 5,2.23858 5,5 z"
       sodipodi:ry="5"
       sodipodi:rx="5"
       sodipodi:cy="257.36218"
       sodipodi:cx="205"
       id="use7446"
       style="fill:#ff0000;fill-opacity:0.74208147;stroke:none"
       sodipodi:type="arc" />
    <path
       inkscape:tile-y0="252.36218"
       inkscape:tile-x0="200"
       transform="matrix(0.2,0,0,0.20000005,280,291.8898)"
       d="m 210,257.36218 c 0,2.76143 -2.23858,5 -5,5 -2.76142,0 -5,-2.23857 -5,-5 0,-2.76142 2.23858,-5 5,-5 2.76142,0 5,2.23858 5,5 z"
       sodipodi:ry="5"
       sodipodi:rx="5"
       sodipodi:cy="257.36218"
       sodipodi:cx="205"
       id="use7448"
       style="fill:#ff0000;fill-opacity:0.74208147;stroke:none"
       sodipodi:type="arc" />
    <path
       inkscape:tile-y0="252.36218"
       inkscape:tile-x0="200"
       transform="matrix(0.2,0,0,0.20000005,280,306.8898)"
       d="m 210,257.36218 c 0,2.76143 -2.23858,5 -5,5 -2.76142,0 -5,-2.23857 -5,-5 0,-2.76142 2.23858,-5 5,-5 2.76142,0 5,2.23858 5,5 z"
       sodipodi:ry="5"
       sodipodi:rx="5"
       sodipodi:cy="257.36218"
       sodipodi:cx="205"
       id="use7450"
       style="fill:#ff0000;fill-opacity:0.74208147;stroke:none"
       sodipodi:type="arc" />
    <path
       inkscape:tile-y0="252.36218"
       inkscape:tile-x0="200"
       transform="matrix(0.2,0,0,0.20000005,280,321.8898)"
       d="m 210,257.36218 c 0,2.76143 -2.23858,5 -5,5 -2.76142,0 -5,-2.23857 -5,-5 0,-2.76142 2.23858,-5 5,-5 2.76142,0 5,2.23858 5,5 z"
       sodipodi:ry="5"
       sodipodi:rx="5"
       sodipodi:cy="257.36218"
       sodipodi:cx="205"
       id="use7452"
       style="fill:#ff0000;fill-opacity:0.74208147;stroke:none"
       sodipodi:type="arc" />
    <path
       inkscape:tile-y0="252.36218"
       inkscape:tile-x0="200"
       transform="matrix(0.2,0,0,0.20000005,280,336.8898)"
       d="m 210,257.36218 c 0,2.76143 -2.23858,5 -5,5 -2.76142,0 -5,-2.23857 -5,-5 0,-2.76142 2.23858,-5 5,-5 2.76142,0 5,2.23858 5,5 z"
       sodipodi:ry="5"
       sodipodi:rx="5"
       sodipodi:cy="257.36218"
       sodipodi:cx="205"
       id="use7454"
       style="fill:#ff0000;fill-opacity:0.74208147;stroke:none"
       sodipodi:type="arc" />
    <use
       x="0"
       y="0"
       inkscape:tiled-clone-of="#path5874"
       xlink:href="#path5874"
       transform="translate(135,20.000066)"
       id="use7456"
       style="fill:#000000;fill-opacity:0.23076926"
       width="744.09448"
       height="1052.3622" />
    <use
       x="0"
       y="0"
       inkscape:tiled-clone-of="#path5874"
       xlink:href="#path5874"
       transform="translate(135,35.000066)"
       id="use7458"
       style="fill:#000000;fill-opacity:0.23076926"
       width="744.09448"
       height="1052.3622" />
    <use
       x="0"
       y="0"
       inkscape:tiled-clone-of="#path5874"
       xlink:href="#path5874"
       transform="translate(135,50.000066)"
       id="use7460"
       style="fill:#000000;fill-opacity:0.23076926"
       width="744.09448"
       height="1052.3622" />
    <path
       inkscape:tile-y0="252.36218"
       inkscape:tile-x0="200"
       transform="matrix(0.2,0,0,0.20000005,295,246.8898)"
       d="m 210,257.36218 c 0,2.76143 -2.23858,5 -5,5 -2.76142,0 -5,-2.23857 -5,-5 0,-2.76142 2.23858,-5 5,-5 2.76142,0 5,2.23858 5,5 z"
       sodipodi:ry="5"
       sodipodi:rx="5"
       sodipodi:cy="257.36218"
       sodipodi:cx="205"
       id="use7462"
       style="fill:#000000;fill-opacity:0.27149323;stroke:none"
       sodipodi:type="arc" />
    <path
       inkscape:tile-y0="252.36218"
       inkscape:tile-x0="200"
       transform="matrix(0.2,0,0,0.20000005,295,261.8898)"
       d="m 210,257.36218 c 0,2.76143 -2.23858,5 -5,5 -2.76142,0 -5,-2.23857 -5,-5 0,-2.76142 2.23858,-5 5,-5 2.76142,0 5,2.23858 5,5 z"
       sodipodi:ry="5"
       sodipodi:rx="5"
       sodipodi:cy="257.36218"
       sodipodi:cx="205"
       id="use7464"
       style="fill:#ff0000;fill-opacity:0.74208147;stroke:none"
       sodipodi:type="arc" />
    <path
       inkscape:tile-y0="252.36218"
       inkscape:tile-x0="200"
       transform="matrix(0.2,0,0,0.20000005,295,276.8898)"
       d="m 210,257.36218 c 0,2.76143 -2.23858,5 -5,5 -2.76142,0 -5,-2.23857 -5,-5 0,-2.76142 2.23858,-5 5,-5 2.76142,0 5,2.23858 5,5 z"
       sodipodi:ry="5"
       sodipodi:rx="5"
       sodipodi:cy="257.36218"
       sodipodi:cx="205"
       id="use7466"
       style="fill:#ff0000;fill-opacity:0.74208147;stroke:none"
       sodipodi:type="arc" />
    <path
       inkscape:tile-y0="252.36218"
       inkscape:tile-x0="200"
       transform="matrix(0.2,0,0,0.20000005,295,291.8898)"
       d="m 210,257.36218 c 0,2.76143 -2.23858,5 -5,5 -2.76142,0 -5,-2.23857 -5,-5 0,-2.76142 2.23858,-5 5,-5 2.76142,0 5,2.23858 5,5 z"
       sodipodi:ry="5"
       sodipodi:rx="5"
       sodipodi:cy="257.36218"
       sodipodi:cx="205"
       id="use7468"
       style="fill:#ff0000;fill-opacity:0.74208147;stroke:none"
       sodipodi:type="arc" />
    <path
       inkscape:tile-y0="252.36218"
       inkscape:tile-x0="200"
       transform="matrix(0.2,0,0,0.20000005,295,306.8898)"
       d="m 210,257.36218 c 0,2.76143 -2.23858,5 -5,5 -2.76142,0 -5,-2.23857 -5,-5 0,-2.76142 2.23858,-5 5,-5 2.76142,0 5,2.23858 5,5 z"
       sodipodi:ry="5"
       sodipodi:rx="5"
       sodipodi:cy="257.36218"
       sodipodi:cx="205"
       id="use7470"
       style="fill:#ff0000;fill-opacity:0.74208147;stroke:none"
       sodipodi:type="arc" />
    <path
       inkscape:tile-y0="252.36218"
       inkscape:tile-x0="200"
       transform="matrix(0.2,0,0,0.20000005,295,321.8898)"
       d="m 210,257.36218 c 0,2.76143 -2.23858,5 -5,5 -2.76142,0 -5,-2.23857 -5,-5 0,-2.76142 2.23858,-5 5,-5 2.76142,0 5,2.23858 5,5 z"
       sodipodi:ry="5"
       sodipodi:rx="5"
       sodipodi:cy="257.36218"
       sodipodi:cx="205"
       id="use7472"
       style="fill:#ff0000;fill-opacity:0.74208147;stroke:none"
       sodipodi:type="arc" />
    <path
       inkscape:tile-y0="252.36218"
       inkscape:tile-x0="200"
       transform="matrix(0.2,0,0,0.20000005,295,336.8898)"
       d="m 210,257.36218 c 0,2.76143 -2.23858,5 -5,5 -2.76142,0 -5,-2.23857 -5,-5 0,-2.76142 2.23858,-5 5,-5 2.76142,0 5,2.23858 5,5 z"
       sodipodi:ry="5"
       sodipodi:rx="5"
       sodipodi:cy="257.36218"
       sodipodi:cx="205"
       id="use7474"
       style="fill:#ff0000;fill-opacity:0.74208147;stroke:none"
       sodipodi:type="arc" />
    <path
       sodipodi:type="arc"
       style="fill:none;stroke:#000000;stroke-width:0.93599999;stroke-miterlimit:4;stroke-opacity:1;stroke-dasharray:none;stroke-dashoffset:0"
       id="path7480"
       sodipodi:cx="325"
       sodipodi:cy="382.36218"
       sodipodi:rx="60"
       sodipodi:ry="60"
       d="m 385,382.36218 c 0,33.13709 -26.86292,60 -60,60 -33.13708,0 -60,-26.86291 -60,-60 0,-33.13708 26.86292,-60 60,-60 33.13708,0 60,26.86292 60,60 z"
       transform="translate(-20.468,-24.532)" />
    <path
       style="fill:#ffffff;fill-opacity:1;stroke:#ffffff;stroke-width:1.03501308;stroke-miterlimit:4;stroke-opacity:1;stroke-dasharray:none;stroke-dashoffset:0"
       d="m 175.50606,227.87969 0,193.583 198.98788,0 0,-193.583 -198.98788,0 z m 20.4328,20.44621 138.13716,0 0,138.22785 -138.13716,0 0,-138.22785 z"
       id="rect7862"
       inkscape:connector-curvature="0" />
    <path
       inkscape:tile-y0="252.36218"
       inkscape:tile-x0="200"
       transform="matrix(0.2,0,0,0.20000005,304,241.88973)"
       d="m 210,257.36218 c 0,2.76143 -2.23858,5 -5,5 -2.76142,0 -5,-2.23857 -5,-5 0,-2.76142 2.23858,-5 5,-5 2.76142,0 5,2.23858 5,5 z"
       sodipodi:ry="5"
       sodipodi:rx="5"
       sodipodi:cy="257.36218"
       sodipodi:cx="205"
       id="use7446-4"
       style="fill:#ff0000;fill-opacity:0.74208147;stroke:none"
       sodipodi:type="arc" />
    <use
       x="0"
       y="0"
       inkscape:tiled-clone-of="#path5874"
       xlink:href="#path5874"
       transform="translate(143.99998,21.000012)"
       id="use7436-5"
       style="fill:#000000;fill-opacity:0.23076926"
       width="744.09448"
       height="1052.3622" />
    <text
       xml:space="preserve"
       style="font-size:14px;font-style:normal;font-variant:normal;font-weight:normal;font-stretch:normal;line-height:125%;letter-spacing:0px;word-spacing:0px;fill:#000000;fill-opacity:1;stroke:none;font-family:Futura LT;-inkscape-font-specification:Futura LT"
       x="349.48199"
       y="298.18018"
       id="text7931"
       sodipodi:linespacing="125%"><tspan
         sodipodi:role="line"
         id="tspan7933"
         x="349.48199"
         y="298.18018">solid node</tspan></text>
    <text
       xml:space="preserve"
       style="font-size:14px;font-style:normal;font-variant:normal;font-weight:normal;font-stretch:normal;line-height:125%;letter-spacing:0px;word-spacing:0px;fill:#000000;fill-opacity:1;stroke:none;font-family:Futura LT;-inkscape-font-specification:Futura LT"
       x="349.45401"
       y="279.18018"
       id="text7935"
       sodipodi:linespacing="125%"><tspan
         sodipodi:role="line"
         id="tspan7937"
         x="349.45401"
         y="279.18018">fluid node</tspan></text>
  </g>
</svg>
