<?xml version="1.0" encoding="UTF-8" standalone="no"?>
<!-- Created with Inkscape (http://www.inkscape.org/) -->

<svg
   xmlns:dc="http://purl.org/dc/elements/1.1/"
   xmlns:cc="http://creativecommons.org/ns#"
   xmlns:rdf="http://www.w3.org/1999/02/22-rdf-syntax-ns#"
   xmlns:svg="http://www.w3.org/2000/svg"
   xmlns="http://www.w3.org/2000/svg"
   xmlns:sodipodi="http://sodipodi.sourceforge.net/DTD/sodipodi-0.dtd"
   xmlns:inkscape="http://www.inkscape.org/namespaces/inkscape"
   width="340.00946"
   height="320.01181"
   id="svg2"
   version="1.1"
   inkscape:version="0.48.4 r9939"
   sodipodi:docname="void-fraction-cell.pdf">
  <defs
     id="defs4" />
  <sodipodi:namedview
     id="base"
     pagecolor="#ffffff"
     bordercolor="#666666"
     borderopacity="1.0"
     inkscape:pageopacity="0.0"
     inkscape:pageshadow="2"
     inkscape:zoom="2.0502383"
     inkscape:cx="218.4005"
     inkscape:cy="108.40158"
     inkscape:document-units="px"
     inkscape:current-layer="layer1"
     showgrid="false"
     inkscape:window-width="1627"
     inkscape:window-height="1026"
     inkscape:window-x="53"
     inkscape:window-y="24"
     inkscape:window-maximized="1"
     fit-margin-top="0"
     fit-margin-left="0"
     fit-margin-right="0"
     fit-margin-bottom="0" />
  <metadata
     id="metadata7">
    <rdf:RDF>
      <cc:Work
         rdf:about="">
        <dc:format>image/svg+xml</dc:format>
        <dc:type
           rdf:resource="http://purl.org/dc/dcmitype/StillImage" />
        <dc:title></dc:title>
      </cc:Work>
    </rdf:RDF>
  </metadata>
  <g
     inkscape:label="Layer 1"
     inkscape:groupmode="layer"
     id="layer1"
     transform="translate(-128.25327,-446.55445)">
    <rect
       style="fill:none;stroke:#000000;stroke-width:1.29943419;stroke-miterlimit:4;stroke-opacity:1;stroke-dasharray:3.89830268, 1.29943423;stroke-dashoffset:0"
       id="rect2985"
       width="167.46169"
       height="155.62553"
       x="222.42627"
       y="528.59613" />
    <path
       sodipodi:type="arc"
       style="fill:#ca5b5b;fill-opacity:0.66063352;stroke:#000000;stroke-width:2;stroke-miterlimit:4;stroke-opacity:1;stroke-dasharray:none;stroke-dashoffset:0"
       id="path3755"
       sodipodi:cx="156.07942"
       sodipodi:cy="482.18457"
       sodipodi:rx="23.89966"
       sodipodi:ry="25.850653"
       d="m 179.97908,482.18457 c 0,14.27692 -10.70024,25.85065 -23.89966,25.85065 -13.19942,0 -23.89966,-11.57373 -23.89966,-25.85065 0,-14.27692 10.70024,-25.85065 23.89966,-25.85065 13.19942,0 23.89966,11.57373 23.89966,25.85065 z"
       transform="translate(73.162225,57.554279)" />
    <path
       transform="translate(47.799314,13.1692)"
       sodipodi:type="arc"
       style="fill:none;stroke:#000000;stroke-width:2;stroke-miterlimit:4;stroke-opacity:1;stroke-dasharray:none;stroke-dashoffset:0"
       id="path3755-4"
       sodipodi:cx="156.07942"
       sodipodi:cy="482.18457"
       sodipodi:rx="23.89966"
       sodipodi:ry="25.850653"
       d="m 179.97908,482.18457 c 0,14.27692 -10.70024,25.85065 -23.89966,25.85065 -13.19942,0 -23.89966,-11.57373 -23.89966,-25.85065 0,-14.27692 10.70024,-25.85065 23.89966,-25.85065 13.19942,0 23.89966,11.57373 23.89966,25.85065 z" />
    <path
       transform="translate(24.387402,59.505276)"
       sodipodi:type="arc"
       style="fill:none;stroke:#000000;stroke-width:2;stroke-miterlimit:4;stroke-opacity:1;stroke-dasharray:none;stroke-dashoffset:0"
       id="path3755-2"
       sodipodi:cx="156.07942"
       sodipodi:cy="482.18457"
       sodipodi:rx="23.89966"
       sodipodi:ry="25.850653"
       d="m 179.97908,482.18457 c 0,14.27692 -10.70024,25.85065 -23.89966,25.85065 -13.19942,0 -23.89966,-11.57373 -23.89966,-25.85065 0,-14.27692 10.70024,-25.85065 23.89966,-25.85065 13.19942,0 23.89966,11.57373 23.89966,25.85065 z" />
    <path
       transform="translate(96.574128,11.218208)"
       sodipodi:type="arc"
       style="fill:none;stroke:#000000;stroke-width:2;stroke-miterlimit:4;stroke-opacity:1;stroke-dasharray:none;stroke-dashoffset:0"
       id="path3755-9"
       sodipodi:cx="156.07942"
       sodipodi:cy="482.18457"
       sodipodi:rx="23.89966"
       sodipodi:ry="25.850653"
       d="m 179.97908,482.18457 c 0,14.27692 -10.70024,25.85065 -23.89966,25.85065 -13.19942,0 -23.89966,-11.57373 -23.89966,-25.85065 0,-14.27692 10.70024,-25.85065 23.89966,-25.85065 13.19942,0 23.89966,11.57373 23.89966,25.85065 z" />
    <path
       transform="translate(142.42246,-8.7794677)"
       sodipodi:type="arc"
       style="fill:none;stroke:#000000;stroke-width:2;stroke-miterlimit:4;stroke-opacity:1;stroke-dasharray:none;stroke-dashoffset:0"
       id="path3755-7"
       sodipodi:cx="156.07942"
       sodipodi:cy="482.18457"
       sodipodi:rx="23.89966"
       sodipodi:ry="25.850653"
       d="m 179.97908,482.18457 c 0,14.27692 -10.70024,25.85065 -23.89966,25.85065 -13.19942,0 -23.89966,-11.57373 -23.89966,-25.85065 0,-14.27692 10.70024,-25.85065 23.89966,-25.85065 13.19942,0 23.89966,11.57373 23.89966,25.85065 z" />
    <path
       transform="translate(135.10624,42.921838)"
       sodipodi:type="arc"
       style="fill:none;stroke:#000000;stroke-width:2;stroke-miterlimit:4;stroke-opacity:1;stroke-dasharray:none;stroke-dashoffset:0"
       id="path3755-21"
       sodipodi:cx="156.07942"
       sodipodi:cy="482.18457"
       sodipodi:rx="23.89966"
       sodipodi:ry="25.850653"
       d="m 179.97908,482.18457 c 0,14.27692 -10.70024,25.85065 -23.89966,25.85065 -13.19942,0 -23.89966,-11.57373 -23.89966,-25.85065 0,-14.27692 10.70024,-25.85065 23.89966,-25.85065 13.19942,0 23.89966,11.57373 23.89966,25.85065 z" />
    <path
       transform="translate(180.95456,23.411912)"
       sodipodi:type="arc"
       style="fill:none;stroke:#000000;stroke-width:2;stroke-miterlimit:4;stroke-opacity:1;stroke-dasharray:none;stroke-dashoffset:0"
       id="path3755-3"
       sodipodi:cx="156.07942"
       sodipodi:cy="482.18457"
       sodipodi:rx="23.89966"
       sodipodi:ry="25.850653"
       d="m 179.97908,482.18457 c 0,14.27692 -10.70024,25.85065 -23.89966,25.85065 -13.19942,0 -23.89966,-11.57373 -23.89966,-25.85065 0,-14.27692 10.70024,-25.85065 23.89966,-25.85065 13.19942,0 23.89966,11.57373 23.89966,25.85065 z" />
    <path
       transform="translate(234.11911,46.823824)"
       sodipodi:type="arc"
       style="fill:#ca5b5b;fill-opacity:0.66063352;stroke:#000000;stroke-width:2;stroke-miterlimit:4;stroke-opacity:1;stroke-dasharray:none;stroke-dashoffset:0"
       id="path3755-6"
       sodipodi:cx="156.07942"
       sodipodi:cy="482.18457"
       sodipodi:rx="23.89966"
       sodipodi:ry="25.850653"
       d="m 179.97908,482.18457 c 0,14.27692 -10.70024,25.85065 -23.89966,25.85065 -13.19942,0 -23.89966,-11.57373 -23.89966,-25.85065 0,-14.27692 10.70024,-25.85065 23.89966,-25.85065 13.19942,0 23.89966,11.57373 23.89966,25.85065 z" />
    <path
       transform="translate(222.90091,-3.901986)"
       sodipodi:type="arc"
       style="fill:none;stroke:#000000;stroke-width:2;stroke-miterlimit:4;stroke-opacity:1;stroke-dasharray:none;stroke-dashoffset:0"
       id="path3755-76"
       sodipodi:cx="156.07942"
       sodipodi:cy="482.18457"
       sodipodi:rx="23.89966"
       sodipodi:ry="25.850653"
       d="m 179.97908,482.18457 c 0,14.27692 -10.70024,25.85065 -23.89966,25.85065 -13.19942,0 -23.89966,-11.57373 -23.89966,-25.85065 0,-14.27692 10.70024,-25.85065 23.89966,-25.85065 13.19942,0 23.89966,11.57373 23.89966,25.85065 z" />
    <path
       transform="translate(270.21248,11.218207)"
       sodipodi:type="arc"
       style="fill:none;stroke:#000000;stroke-width:2;stroke-miterlimit:4;stroke-opacity:1;stroke-dasharray:none;stroke-dashoffset:0"
       id="path3755-71"
       sodipodi:cx="156.07942"
       sodipodi:cy="482.18457"
       sodipodi:rx="23.89966"
       sodipodi:ry="25.850653"
       d="m 179.97908,482.18457 c 0,14.27692 -10.70024,25.85065 -23.89966,25.85065 -13.19942,0 -23.89966,-11.57373 -23.89966,-25.85065 0,-14.27692 10.70024,-25.85065 23.89966,-25.85065 13.19942,0 23.89966,11.57373 23.89966,25.85065 z" />
    <path
       transform="translate(279.96744,61.456269)"
       sodipodi:type="arc"
       style="fill:none;stroke:#000000;stroke-width:2;stroke-miterlimit:4;stroke-opacity:1;stroke-dasharray:none;stroke-dashoffset:0"
       id="path3755-26"
       sodipodi:cx="156.07942"
       sodipodi:cy="482.18457"
       sodipodi:rx="23.89966"
       sodipodi:ry="25.850653"
       d="m 179.97908,482.18457 c 0,14.27692 -10.70024,25.85065 -23.89966,25.85065 -13.19942,0 -23.89966,-11.57373 -23.89966,-25.85065 0,-14.27692 10.70024,-25.85065 23.89966,-25.85065 13.19942,0 23.89966,11.57373 23.89966,25.85065 z" />
    <path
       transform="translate(243.87408,95.598641)"
       sodipodi:type="arc"
       style="fill:none;stroke:#000000;stroke-width:2;stroke-miterlimit:4;stroke-opacity:1;stroke-dasharray:none;stroke-dashoffset:0"
       id="path3755-1"
       sodipodi:cx="156.07942"
       sodipodi:cy="482.18457"
       sodipodi:rx="23.89966"
       sodipodi:ry="25.850653"
       d="m 179.97908,482.18457 c 0,14.27692 -10.70024,25.85065 -23.89966,25.85065 -13.19942,0 -23.89966,-11.57373 -23.89966,-25.85065 0,-14.27692 10.70024,-25.85065 23.89966,-25.85065 13.19942,0 23.89966,11.57373 23.89966,25.85065 z" />
    <path
       transform="translate(192.17278,73.649977)"
       sodipodi:type="arc"
       style="fill:#ca5b5b;fill-opacity:0.66063352;stroke:#000000;stroke-width:2;stroke-miterlimit:4;stroke-opacity:1;stroke-dasharray:none;stroke-dashoffset:0"
       id="path3755-25"
       sodipodi:cx="156.07942"
       sodipodi:cy="482.18457"
       sodipodi:rx="23.89966"
       sodipodi:ry="25.850653"
       d="m 179.97908,482.18457 c 0,14.27692 -10.70024,25.85065 -23.89966,25.85065 -13.19942,0 -23.89966,-11.57373 -23.89966,-25.85065 0,-14.27692 10.70024,-25.85065 23.89966,-25.85065 13.19942,0 23.89966,11.57373 23.89966,25.85065 z" />
    <path
       transform="translate(147.29994,93.159901)"
       sodipodi:type="arc"
       style="fill:#ca5b5b;fill-opacity:0.66063352;stroke:#000000;stroke-width:2;stroke-miterlimit:4;stroke-opacity:1;stroke-dasharray:none;stroke-dashoffset:0"
       id="path3755-0"
       sodipodi:cx="156.07942"
       sodipodi:cy="482.18457"
       sodipodi:rx="23.89966"
       sodipodi:ry="25.850653"
       d="m 179.97908,482.18457 c 0,14.27692 -10.70024,25.85065 -23.89966,25.85065 -13.19942,0 -23.89966,-11.57373 -23.89966,-25.85065 0,-14.27692 10.70024,-25.85065 23.89966,-25.85065 13.19942,0 23.89966,11.57373 23.89966,25.85065 z" />
    <path
       transform="translate(98.525122,100.47612)"
       sodipodi:type="arc"
       style="fill:#ca5b5b;fill-opacity:0.66063352;stroke:#000000;stroke-width:2;stroke-miterlimit:4;stroke-opacity:1;stroke-dasharray:none;stroke-dashoffset:0"
       id="path3755-77"
       sodipodi:cx="156.07942"
       sodipodi:cy="482.18457"
       sodipodi:rx="23.89966"
       sodipodi:ry="25.850653"
       d="m 179.97908,482.18457 c 0,14.27692 -10.70024,25.85065 -23.89966,25.85065 -13.19942,0 -23.89966,-11.57373 -23.89966,-25.85065 0,-14.27692 10.70024,-25.85065 23.89966,-25.85065 13.19942,0 23.89966,11.57373 23.89966,25.85065 z" />
    <path
       transform="translate(185.3443,125.83903)"
       sodipodi:type="arc"
       style="fill:#ca5b5b;fill-opacity:0.66063352;stroke:#000000;stroke-width:2;stroke-miterlimit:4;stroke-opacity:1;stroke-dasharray:none;stroke-dashoffset:0"
       id="path3755-34"
       sodipodi:cx="156.07942"
       sodipodi:cy="482.18457"
       sodipodi:rx="23.89966"
       sodipodi:ry="25.850653"
       d="m 179.97908,482.18457 c 0,14.27692 -10.70024,25.85065 -23.89966,25.85065 -13.19942,0 -23.89966,-11.57373 -23.89966,-25.85065 0,-14.27692 10.70024,-25.85065 23.89966,-25.85065 13.19942,0 23.89966,11.57373 23.89966,25.85065 z" />
    <path
       transform="translate(229.72938,145.8367)"
       sodipodi:type="arc"
       style="fill:#ca5b5b;fill-opacity:0.66063352;stroke:#000000;stroke-width:2;stroke-miterlimit:4;stroke-opacity:1;stroke-dasharray:none;stroke-dashoffset:0"
       id="path3755-45"
       sodipodi:cx="156.07942"
       sodipodi:cy="482.18457"
       sodipodi:rx="23.89966"
       sodipodi:ry="25.850653"
       d="m 179.97908,482.18457 c 0,14.27692 -10.70024,25.85065 -23.89966,25.85065 -13.19942,0 -23.89966,-11.57373 -23.89966,-25.85065 0,-14.27692 10.70024,-25.85065 23.89966,-25.85065 13.19942,0 23.89966,11.57373 23.89966,25.85065 z" />
    <path
       transform="translate(190.70953,177.05259)"
       sodipodi:type="arc"
       style="fill:#ca5b5b;fill-opacity:0.66063352;stroke:#000000;stroke-width:2;stroke-miterlimit:4;stroke-opacity:1;stroke-dasharray:none;stroke-dashoffset:0"
       id="path3755-773"
       sodipodi:cx="156.07942"
       sodipodi:cy="482.18457"
       sodipodi:rx="23.89966"
       sodipodi:ry="25.850653"
       d="m 179.97908,482.18457 c 0,14.27692 -10.70024,25.85065 -23.89966,25.85065 -13.19942,0 -23.89966,-11.57373 -23.89966,-25.85065 0,-14.27692 10.70024,-25.85065 23.89966,-25.85065 13.19942,0 23.89966,11.57373 23.89966,25.85065 z" />
    <path
       transform="translate(235.58236,196.56251)"
       sodipodi:type="arc"
       style="fill:none;stroke:#000000;stroke-width:2;stroke-miterlimit:4;stroke-opacity:1;stroke-dasharray:none;stroke-dashoffset:0"
       id="path3755-8"
       sodipodi:cx="156.07942"
       sodipodi:cy="482.18457"
       sodipodi:rx="23.89966"
       sodipodi:ry="25.850653"
       d="m 179.97908,482.18457 c 0,14.27692 -10.70024,25.85065 -23.89966,25.85065 -13.19942,0 -23.89966,-11.57373 -23.89966,-25.85065 0,-14.27692 10.70024,-25.85065 23.89966,-25.85065 13.19942,0 23.89966,11.57373 23.89966,25.85065 z" />
    <path
       transform="translate(139.49597,143.39797)"
       sodipodi:type="arc"
       style="fill:#ca5b5b;fill-opacity:0.66063352;stroke:#000000;stroke-width:2;stroke-miterlimit:4;stroke-opacity:1;stroke-dasharray:none;stroke-dashoffset:0"
       id="path3755-91"
       sodipodi:cx="156.07942"
       sodipodi:cy="482.18457"
       sodipodi:rx="23.89966"
       sodipodi:ry="25.850653"
       d="m 179.97908,482.18457 c 0,14.27692 -10.70024,25.85065 -23.89966,25.85065 -13.19942,0 -23.89966,-11.57373 -23.89966,-25.85065 0,-14.27692 10.70024,-25.85065 23.89966,-25.85065 13.19942,0 23.89966,11.57373 23.89966,25.85065 z" />
    <path
       transform="translate(144.8612,194.61151)"
       sodipodi:type="arc"
       style="fill:#ca5b5b;fill-opacity:0.66063352;stroke:#000000;stroke-width:2;stroke-miterlimit:4;stroke-opacity:1;stroke-dasharray:none;stroke-dashoffset:0"
       id="path3755-84"
       sodipodi:cx="156.07942"
       sodipodi:cy="482.18457"
       sodipodi:rx="23.89966"
       sodipodi:ry="25.850653"
       d="m 179.97908,482.18457 c 0,14.27692 -10.70024,25.85065 -23.89966,25.85065 -13.19942,0 -23.89966,-11.57373 -23.89966,-25.85065 0,-14.27692 10.70024,-25.85065 23.89966,-25.85065 13.19942,0 23.89966,11.57373 23.89966,25.85065 z" />
    <path
       transform="translate(91.2089,151.20193)"
       sodipodi:type="arc"
       style="fill:#ca5b5b;fill-opacity:0.66063352;stroke:#000000;stroke-width:2;stroke-miterlimit:4;stroke-opacity:1;stroke-dasharray:none;stroke-dashoffset:0"
       id="path3755-5"
       sodipodi:cx="156.07942"
       sodipodi:cy="482.18457"
       sodipodi:rx="23.89966"
       sodipodi:ry="25.850653"
       d="m 179.97908,482.18457 c 0,14.27692 -10.70024,25.85065 -23.89966,25.85065 -13.19942,0 -23.89966,-11.57373 -23.89966,-25.85065 0,-14.27692 10.70024,-25.85065 23.89966,-25.85065 13.19942,0 23.89966,11.57373 23.89966,25.85065 z" />
    <path
       transform="translate(54.627788,117.54731)"
       sodipodi:type="arc"
       style="fill:none;stroke:#000000;stroke-width:2;stroke-miterlimit:4;stroke-opacity:1;stroke-dasharray:none;stroke-dashoffset:0"
       id="path3755-917"
       sodipodi:cx="156.07942"
       sodipodi:cy="482.18457"
       sodipodi:rx="23.89966"
       sodipodi:ry="25.850653"
       d="m 179.97908,482.18457 c 0,14.27692 -10.70024,25.85065 -23.89966,25.85065 -13.19942,0 -23.89966,-11.57373 -23.89966,-25.85065 0,-14.27692 10.70024,-25.85065 23.89966,-25.85065 13.19942,0 23.89966,11.57373 23.89966,25.85065 z" />
    <path
       transform="translate(6.3407188,106.81685)"
       sodipodi:type="arc"
       style="fill:none;stroke:#000000;stroke-width:2;stroke-miterlimit:4;stroke-opacity:1;stroke-dasharray:none;stroke-dashoffset:0"
       id="path3755-16"
       sodipodi:cx="156.07942"
       sodipodi:cy="482.18457"
       sodipodi:rx="23.89966"
       sodipodi:ry="25.850653"
       d="m 179.97908,482.18457 c 0,14.27692 -10.70024,25.85065 -23.89966,25.85065 -13.19942,0 -23.89966,-11.57373 -23.89966,-25.85065 0,-14.27692 10.70024,-25.85065 23.89966,-25.85065 13.19942,0 23.89966,11.57373 23.89966,25.85065 z" />
    <path
       transform="translate(44.872825,168.27312)"
       sodipodi:type="arc"
       style="fill:none;stroke:#000000;stroke-width:2;stroke-miterlimit:4;stroke-opacity:1;stroke-dasharray:none;stroke-dashoffset:0"
       id="path3755-38"
       sodipodi:cx="156.07942"
       sodipodi:cy="482.18457"
       sodipodi:rx="23.89966"
       sodipodi:ry="25.850653"
       d="m 179.97908,482.18457 c 0,14.27692 -10.70024,25.85065 -23.89966,25.85065 -13.19942,0 -23.89966,-11.57373 -23.89966,-25.85065 0,-14.27692 10.70024,-25.85065 23.89966,-25.85065 13.19942,0 23.89966,11.57373 23.89966,25.85065 z" />
    <path
       transform="translate(81.453937,201.92774)"
       sodipodi:type="arc"
       style="fill:#ca5b5b;fill-opacity:0.66063352;stroke:#000000;stroke-width:2;stroke-miterlimit:4;stroke-opacity:1;stroke-dasharray:none;stroke-dashoffset:0"
       id="path3755-33"
       sodipodi:cx="156.07942"
       sodipodi:cy="482.18457"
       sodipodi:rx="23.89966"
       sodipodi:ry="25.850653"
       d="m 179.97908,482.18457 c 0,14.27692 -10.70024,25.85065 -23.89966,25.85065 -13.19942,0 -23.89966,-11.57373 -23.89966,-25.85065 0,-14.27692 10.70024,-25.85065 23.89966,-25.85065 13.19942,0 23.89966,11.57373 23.89966,25.85065 z" />
    <path
       transform="translate(116.57181,238.02111)"
       sodipodi:type="arc"
       style="fill:none;stroke:#000000;stroke-width:2;stroke-miterlimit:4;stroke-opacity:1;stroke-dasharray:none;stroke-dashoffset:0"
       id="path3755-17"
       sodipodi:cx="156.07942"
       sodipodi:cy="482.18457"
       sodipodi:rx="23.89966"
       sodipodi:ry="25.850653"
       d="m 179.97908,482.18457 c 0,14.27692 -10.70024,25.85065 -23.89966,25.85065 -13.19942,0 -23.89966,-11.57373 -23.89966,-25.85065 0,-14.27692 10.70024,-25.85065 23.89966,-25.85065 13.19942,0 23.89966,11.57373 23.89966,25.85065 z" />
    <path
       transform="translate(165.34662,241.43534)"
       sodipodi:type="arc"
       style="fill:none;stroke:#000000;stroke-width:2;stroke-miterlimit:4;stroke-opacity:1;stroke-dasharray:none;stroke-dashoffset:0"
       id="path3755-14"
       sodipodi:cx="156.07942"
       sodipodi:cy="482.18457"
       sodipodi:rx="23.89966"
       sodipodi:ry="25.850653"
       d="m 179.97908,482.18457 c 0,14.27692 -10.70024,25.85065 -23.89966,25.85065 -13.19942,0 -23.89966,-11.57373 -23.89966,-25.85065 0,-14.27692 10.70024,-25.85065 23.89966,-25.85065 13.19942,0 23.89966,11.57373 23.89966,25.85065 z" />
    <path
       transform="translate(214.12144,244.36184)"
       sodipodi:type="arc"
       style="fill:none;stroke:#000000;stroke-width:2;stroke-miterlimit:4;stroke-opacity:1;stroke-dasharray:none;stroke-dashoffset:0"
       id="path3755-96"
       sodipodi:cx="156.07942"
       sodipodi:cy="482.18457"
       sodipodi:rx="23.89966"
       sodipodi:ry="25.850653"
       d="m 179.97908,482.18457 c 0,14.27692 -10.70024,25.85065 -23.89966,25.85065 -13.19942,0 -23.89966,-11.57373 -23.89966,-25.85065 0,-14.27692 10.70024,-25.85065 23.89966,-25.85065 13.19942,0 23.89966,11.57373 23.89966,25.85065 z" />
    <path
       transform="translate(275.08996,166.32212)"
       sodipodi:type="arc"
       style="fill:none;stroke:#000000;stroke-width:2;stroke-miterlimit:4;stroke-opacity:1;stroke-dasharray:none;stroke-dashoffset:0"
       id="path3755-56"
       sodipodi:cx="156.07942"
       sodipodi:cy="482.18457"
       sodipodi:rx="23.89966"
       sodipodi:ry="25.850653"
       d="m 179.97908,482.18457 c 0,14.27692 -10.70024,25.85065 -23.89966,25.85065 -13.19942,0 -23.89966,-11.57373 -23.89966,-25.85065 0,-14.27692 10.70024,-25.85065 23.89966,-25.85065 13.19942,0 23.89966,11.57373 23.89966,25.85065 z" />
    <path
       transform="translate(279.96744,218.99892)"
       sodipodi:type="arc"
       style="fill:none;stroke:#000000;stroke-width:2;stroke-miterlimit:4;stroke-opacity:1;stroke-dasharray:none;stroke-dashoffset:0"
       id="path3755-48"
       sodipodi:cx="156.07942"
       sodipodi:cy="482.18457"
       sodipodi:rx="23.89966"
       sodipodi:ry="25.850653"
       d="m 179.97908,482.18457 c 0,14.27692 -10.70024,25.85065 -23.89966,25.85065 -13.19942,0 -23.89966,-11.57373 -23.89966,-25.85065 0,-14.27692 10.70024,-25.85065 23.89966,-25.85065 13.19942,0 23.89966,11.57373 23.89966,25.85065 z" />
    <path
       transform="translate(287.28366,115.59632)"
       sodipodi:type="arc"
       style="fill:none;stroke:#000000;stroke-width:2;stroke-miterlimit:4;stroke-opacity:1;stroke-dasharray:none;stroke-dashoffset:0"
       id="path3755-20"
       sodipodi:cx="156.07942"
       sodipodi:cy="482.18457"
       sodipodi:rx="23.89966"
       sodipodi:ry="25.850653"
       d="m 179.97908,482.18457 c 0,14.27692 -10.70024,25.85065 -23.89966,25.85065 -13.19942,0 -23.89966,-11.57373 -23.89966,-25.85065 0,-14.27692 10.70024,-25.85065 23.89966,-25.85065 13.19942,0 23.89966,11.57373 23.89966,25.85065 z" />
    <path
       transform="translate(-2.9264941,157.05491)"
       sodipodi:type="arc"
       style="fill:none;stroke:#000000;stroke-width:2;stroke-miterlimit:4;stroke-opacity:1;stroke-dasharray:none;stroke-dashoffset:0"
       id="path3755-51"
       sodipodi:cx="156.07942"
       sodipodi:cy="482.18457"
       sodipodi:rx="23.89966"
       sodipodi:ry="25.850653"
       d="m 179.97908,482.18457 c 0,14.27692 -10.70024,25.85065 -23.89966,25.85065 -13.19942,0 -23.89966,-11.57373 -23.89966,-25.85065 0,-14.27692 10.70024,-25.85065 23.89966,-25.85065 13.19942,0 23.89966,11.57373 23.89966,25.85065 z" />
    <path
       transform="translate(36.581106,220.46217)"
       sodipodi:type="arc"
       style="fill:none;stroke:#000000;stroke-width:2;stroke-miterlimit:4;stroke-opacity:1;stroke-dasharray:none;stroke-dashoffset:0"
       id="path3755-78"
       sodipodi:cx="156.07942"
       sodipodi:cy="482.18457"
       sodipodi:rx="23.89966"
       sodipodi:ry="25.850653"
       d="m 179.97908,482.18457 c 0,14.27692 -10.70024,25.85065 -23.89966,25.85065 -13.19942,0 -23.89966,-11.57373 -23.89966,-25.85065 0,-14.27692 10.70024,-25.85065 23.89966,-25.85065 13.19942,0 23.89966,11.57373 23.89966,25.85065 z" />
    <path
       transform="translate(71.211226,257.53103)"
       sodipodi:type="arc"
       style="fill:none;stroke:#000000;stroke-width:2;stroke-miterlimit:4;stroke-opacity:1;stroke-dasharray:none;stroke-dashoffset:0"
       id="path3755-98"
       sodipodi:cx="156.07942"
       sodipodi:cy="482.18457"
       sodipodi:rx="23.89966"
       sodipodi:ry="25.850653"
       d="m 179.97908,482.18457 c 0,14.27692 -10.70024,25.85065 -23.89966,25.85065 -13.19942,0 -23.89966,-11.57373 -23.89966,-25.85065 0,-14.27692 10.70024,-25.85065 23.89966,-25.85065 13.19942,0 23.89966,11.57373 23.89966,25.85065 z" />
    <text
       xml:space="preserve"
       style="font-size:14px;font-style:normal;font-variant:normal;font-weight:normal;font-stretch:normal;line-height:125%;letter-spacing:0px;word-spacing:0px;fill:#000000;fill-opacity:1;stroke:none;font-family:Futura LT;-inkscape-font-specification:Futura LT"
       x="392.6373"
       y="527.05737"
       id="text4054"
       sodipodi:linespacing="125%"><tspan
         sodipodi:role="line"
         id="tspan4056"
         x="392.6373"
         y="527.05737">A</tspan></text>
    <text
       xml:space="preserve"
       style="font-size:14px;font-style:normal;font-variant:normal;font-weight:normal;font-stretch:normal;line-height:125%;letter-spacing:0px;word-spacing:0px;fill:#000000;fill-opacity:1;stroke:none;font-family:Futura LT;-inkscape-font-specification:Futura LT"
       x="344.83798"
       y="559.24878"
       id="text4058"
       sodipodi:linespacing="125%"><tspan
         sodipodi:role="line"
         id="tspan4060"
         x="344.83798"
         y="559.24878">B</tspan></text>
    <text
       xml:space="preserve"
       style="font-size:14px;font-style:normal;font-variant:normal;font-weight:normal;font-stretch:normal;line-height:125%;letter-spacing:0px;word-spacing:0px;fill:#000000;fill-opacity:1;stroke:none;font-family:Futura LT;-inkscape-font-specification:Futura LT"
       x="298.50189"
       y="580.22198"
       id="text4062"
       sodipodi:linespacing="125%"><tspan
         sodipodi:role="line"
         id="tspan4064"
         x="298.50189"
         y="580.22198">C</tspan></text>
    <text
       xml:space="preserve"
       style="font-size:14px;font-style:normal;font-variant:normal;font-weight:normal;font-stretch:normal;line-height:125%;letter-spacing:0px;word-spacing:0px;fill:#000000;fill-opacity:1;stroke:none;font-family:Futura LT;-inkscape-font-specification:Futura LT"
       x="251.19031"
       y="588.02594"
       id="text4066"
       sodipodi:linespacing="125%"><tspan
         sodipodi:role="line"
         id="tspan4068"
         x="251.19031"
         y="588.02594">D</tspan></text>
    <text
       xml:space="preserve"
       style="font-size:14px;font-style:normal;font-variant:normal;font-weight:normal;font-stretch:normal;line-height:125%;letter-spacing:0px;word-spacing:0px;fill:#000000;fill-opacity:1;stroke:none;font-family:Futura LT;-inkscape-font-specification:Futura LT"
       x="228.75391"
       y="548.03058"
       id="text4070"
       sodipodi:linespacing="125%"><tspan
         sodipodi:role="line"
         id="tspan4072"
         x="228.75391"
         y="548.03058">E</tspan></text>
    <text
       xml:space="preserve"
       style="font-size:14px;font-style:normal;font-variant:normal;font-weight:normal;font-stretch:normal;line-height:125%;letter-spacing:0px;word-spacing:0px;fill:#000000;fill-opacity:1;stroke:none;font-family:Futura LT;-inkscape-font-specification:Futura LT"
       x="242.89859"
       y="638.75171"
       id="text4074"
       sodipodi:linespacing="125%"><tspan
         sodipodi:role="line"
         id="tspan4076"
         x="242.89859"
         y="638.75171">F</tspan></text>
    <text
       xml:space="preserve"
       style="font-size:14px;font-style:normal;font-variant:normal;font-weight:normal;font-stretch:normal;line-height:125%;letter-spacing:0px;word-spacing:0px;fill:#000000;fill-opacity:1;stroke:none;font-family:Futura LT;-inkscape-font-specification:Futura LT"
       x="289.72244"
       y="630.46002"
       id="text4078"
       sodipodi:linespacing="125%"><tspan
         sodipodi:role="line"
         id="tspan4080"
         x="289.72244"
         y="630.46002">G</tspan></text>
    <text
       xml:space="preserve"
       style="font-size:14px;font-style:normal;font-variant:normal;font-weight:normal;font-stretch:normal;line-height:125%;letter-spacing:0px;word-spacing:0px;fill:#000000;fill-opacity:1;stroke:none;font-family:Futura LT;-inkscape-font-specification:Futura LT"
       x="334.59521"
       y="614.85205"
       id="text4082"
       sodipodi:linespacing="125%"><tspan
         sodipodi:role="line"
         id="tspan4084"
         x="334.59521"
         y="614.85205">H</tspan></text>
    <text
       xml:space="preserve"
       style="font-size:14px;font-style:normal;font-variant:normal;font-weight:normal;font-stretch:normal;line-height:125%;letter-spacing:0px;word-spacing:0px;fill:#000000;fill-opacity:1;stroke:none;font-family:Futura LT;-inkscape-font-specification:Futura LT"
       x="378.98032"
       y="632.89874"
       id="text4086"
       sodipodi:linespacing="125%"><tspan
         sodipodi:role="line"
         id="tspan4088"
         x="378.98032"
         y="632.89874">I</tspan></text>
    <text
       xml:space="preserve"
       style="font-size:14px;font-style:normal;font-variant:normal;font-weight:normal;font-stretch:normal;line-height:125%;letter-spacing:0px;word-spacing:0px;fill:#000000;fill-opacity:1;stroke:none;font-family:Futura LT;-inkscape-font-specification:Futura LT"
       x="344.35019"
       y="666.55341"
       id="text4090"
       sodipodi:linespacing="125%"><tspan
         sodipodi:role="line"
         id="tspan4092"
         x="344.35019"
         y="666.55341">J</tspan></text>
    <text
       xml:space="preserve"
       style="font-size:14px;font-style:normal;font-variant:normal;font-weight:normal;font-stretch:normal;line-height:125%;letter-spacing:0px;word-spacing:0px;fill:#000000;fill-opacity:1;stroke:none;font-family:Futura LT;-inkscape-font-specification:Futura LT"
       x="297.03867"
       y="676.30835"
       id="text4094"
       sodipodi:linespacing="125%"><tspan
         sodipodi:role="line"
         id="tspan4096"
         x="297.03867"
         y="676.30835">K</tspan></text>
    <text
       xml:space="preserve"
       style="font-size:14px;font-style:normal;font-variant:normal;font-weight:normal;font-stretch:normal;line-height:125%;letter-spacing:0px;word-spacing:0px;fill:#000000;fill-opacity:1;stroke:none;font-family:Futura LT;-inkscape-font-specification:Futura LT"
       x="236.55788"
       y="677.28387"
       id="text4098"
       sodipodi:linespacing="125%"><tspan
         sodipodi:role="line"
         id="tspan4100"
         x="236.55788"
         y="677.28387">L</tspan></text>
  </g>
</svg>
