<?xml version="1.0" encoding="UTF-8" standalone="no"?>
<!-- Created with Inkscape (http://www.inkscape.org/) -->

<svg
   xmlns:dc="http://purl.org/dc/elements/1.1/"
   xmlns:cc="http://creativecommons.org/ns#"
   xmlns:rdf="http://www.w3.org/1999/02/22-rdf-syntax-ns#"
   xmlns:svg="http://www.w3.org/2000/svg"
   xmlns="http://www.w3.org/2000/svg"
   xmlns:sodipodi="http://sodipodi.sourceforge.net/DTD/sodipodi-0.dtd"
   xmlns:inkscape="http://www.inkscape.org/namespaces/inkscape"
   width="340.00946"
   height="320.01181"
   id="svg2"
   version="1.1"
   inkscape:version="0.48.4 r9939"
   sodipodi:docname="void-fraction-divided-cell.pdf">
  <defs
     id="defs4">
    <marker
       inkscape:stockid="Arrow1Mend"
       orient="auto"
       refY="0.0"
       refX="0.0"
       id="Arrow1Mend"
       style="overflow:visible;">
      <path
         id="path4476"
         d="M 0.0,0.0 L 5.0,-5.0 L -12.5,0.0 L 5.0,5.0 L 0.0,0.0 z "
         style="fill-rule:evenodd;stroke:#000000;stroke-width:1.0pt;"
         transform="scale(0.4) rotate(180) translate(10,0)" />
    </marker>
    <marker
       inkscape:stockid="Arrow1Lend"
       orient="auto"
       refY="0.0"
       refX="0.0"
       id="Arrow1Lend"
       style="overflow:visible;">
      <path
         id="path4470"
         d="M 0.0,0.0 L 5.0,-5.0 L -12.5,0.0 L 5.0,5.0 L 0.0,0.0 z "
         style="fill-rule:evenodd;stroke:#000000;stroke-width:1.0pt;"
         transform="scale(0.8) rotate(180) translate(12.5,0)" />
    </marker>
  </defs>
  <sodipodi:namedview
     id="base"
     pagecolor="#ffffff"
     bordercolor="#666666"
     borderopacity="1.0"
     inkscape:pageopacity="0.0"
     inkscape:pageshadow="2"
     inkscape:zoom="2.0502383"
     inkscape:cx="169.30076"
     inkscape:cy="213.45722"
     inkscape:document-units="px"
     inkscape:current-layer="layer1"
     showgrid="false"
     inkscape:window-width="1627"
     inkscape:window-height="1026"
     inkscape:window-x="53"
     inkscape:window-y="24"
     inkscape:window-maximized="1"
     fit-margin-top="0"
     fit-margin-left="0"
     fit-margin-right="0"
     fit-margin-bottom="0" />
  <metadata
     id="metadata7">
    <rdf:RDF>
      <cc:Work
         rdf:about="">
        <dc:format>image/svg+xml</dc:format>
        <dc:type
           rdf:resource="http://purl.org/dc/dcmitype/StillImage" />
        <dc:title></dc:title>
      </cc:Work>
    </rdf:RDF>
  </metadata>
  <g
     inkscape:label="Layer 1"
     inkscape:groupmode="layer"
     id="layer1"
     transform="translate(-128.25327,-446.55445)">
    <rect
       style="fill:none;stroke:#000000;stroke-width:1.29943419;stroke-miterlimit:4;stroke-opacity:1;stroke-dasharray:3.89830268, 1.29943423;stroke-dashoffset:0"
       id="rect2985"
       width="167.46169"
       height="155.62553"
       x="222.42627"
       y="528.59613" />
    <path
       sodipodi:type="arc"
       style="fill:#ca5b5b;fill-opacity:0.66063352;stroke:#000000;stroke-width:2;stroke-miterlimit:4;stroke-opacity:1;stroke-dasharray:none;stroke-dashoffset:0"
       id="path3755"
       sodipodi:cx="156.07942"
       sodipodi:cy="482.18457"
       sodipodi:rx="23.89966"
       sodipodi:ry="25.850653"
       d="m 179.97908,482.18457 c 0,14.27692 -10.70024,25.85065 -23.89966,25.85065 -13.19942,0 -23.89966,-11.57373 -23.89966,-25.85065 0,-14.27692 10.70024,-25.85065 23.89966,-25.85065 13.19942,0 23.89966,11.57373 23.89966,25.85065 z"
       transform="translate(73.162225,57.554279)" />
    <path
       transform="translate(47.799314,13.1692)"
       sodipodi:type="arc"
       style="fill:none;stroke:#000000;stroke-width:2;stroke-miterlimit:4;stroke-opacity:1;stroke-dasharray:none;stroke-dashoffset:0"
       id="path3755-4"
       sodipodi:cx="156.07942"
       sodipodi:cy="482.18457"
       sodipodi:rx="23.89966"
       sodipodi:ry="25.850653"
       d="m 179.97908,482.18457 c 0,14.27692 -10.70024,25.85065 -23.89966,25.85065 -13.19942,0 -23.89966,-11.57373 -23.89966,-25.85065 0,-14.27692 10.70024,-25.85065 23.89966,-25.85065 13.19942,0 23.89966,11.57373 23.89966,25.85065 z" />
    <path
       transform="translate(24.387402,59.505276)"
       sodipodi:type="arc"
       style="fill:none;stroke:#000000;stroke-width:2;stroke-miterlimit:4;stroke-opacity:1;stroke-dasharray:none;stroke-dashoffset:0"
       id="path3755-2"
       sodipodi:cx="156.07942"
       sodipodi:cy="482.18457"
       sodipodi:rx="23.89966"
       sodipodi:ry="25.850653"
       d="m 179.97908,482.18457 c 0,14.27692 -10.70024,25.85065 -23.89966,25.85065 -13.19942,0 -23.89966,-11.57373 -23.89966,-25.85065 0,-14.27692 10.70024,-25.85065 23.89966,-25.85065 13.19942,0 23.89966,11.57373 23.89966,25.85065 z" />
    <path
       transform="translate(96.574128,11.218208)"
       sodipodi:type="arc"
       style="fill:none;stroke:#000000;stroke-width:2;stroke-miterlimit:4;stroke-opacity:1;stroke-dasharray:none;stroke-dashoffset:0"
       id="path3755-9"
       sodipodi:cx="156.07942"
       sodipodi:cy="482.18457"
       sodipodi:rx="23.89966"
       sodipodi:ry="25.850653"
       d="m 179.97908,482.18457 c 0,14.27692 -10.70024,25.85065 -23.89966,25.85065 -13.19942,0 -23.89966,-11.57373 -23.89966,-25.85065 0,-14.27692 10.70024,-25.85065 23.89966,-25.85065 13.19942,0 23.89966,11.57373 23.89966,25.85065 z" />
    <path
       transform="translate(142.42246,-8.7794677)"
       sodipodi:type="arc"
       style="fill:none;stroke:#000000;stroke-width:2;stroke-miterlimit:4;stroke-opacity:1;stroke-dasharray:none;stroke-dashoffset:0"
       id="path3755-7"
       sodipodi:cx="156.07942"
       sodipodi:cy="482.18457"
       sodipodi:rx="23.89966"
       sodipodi:ry="25.850653"
       d="m 179.97908,482.18457 c 0,14.27692 -10.70024,25.85065 -23.89966,25.85065 -13.19942,0 -23.89966,-11.57373 -23.89966,-25.85065 0,-14.27692 10.70024,-25.85065 23.89966,-25.85065 13.19942,0 23.89966,11.57373 23.89966,25.85065 z" />
    <path
       transform="translate(135.10624,42.921838)"
       sodipodi:type="arc"
       style="fill:none;stroke:#000000;stroke-width:2;stroke-miterlimit:4;stroke-opacity:1;stroke-dasharray:none;stroke-dashoffset:0"
       id="path3755-21"
       sodipodi:cx="156.07942"
       sodipodi:cy="482.18457"
       sodipodi:rx="23.89966"
       sodipodi:ry="25.850653"
       d="m 179.97908,482.18457 c 0,14.27692 -10.70024,25.85065 -23.89966,25.85065 -13.19942,0 -23.89966,-11.57373 -23.89966,-25.85065 0,-14.27692 10.70024,-25.85065 23.89966,-25.85065 13.19942,0 23.89966,11.57373 23.89966,25.85065 z" />
    <path
       transform="translate(180.95456,23.411912)"
       sodipodi:type="arc"
       style="fill:none;stroke:#000000;stroke-width:2;stroke-miterlimit:4;stroke-opacity:1;stroke-dasharray:none;stroke-dashoffset:0"
       id="path3755-3"
       sodipodi:cx="156.07942"
       sodipodi:cy="482.18457"
       sodipodi:rx="23.89966"
       sodipodi:ry="25.850653"
       d="m 179.97908,482.18457 c 0,14.27692 -10.70024,25.85065 -23.89966,25.85065 -13.19942,0 -23.89966,-11.57373 -23.89966,-25.85065 0,-14.27692 10.70024,-25.85065 23.89966,-25.85065 13.19942,0 23.89966,11.57373 23.89966,25.85065 z" />
    <path
       transform="translate(234.11911,46.823824)"
       sodipodi:type="arc"
       style="fill:#ffffff;fill-opacity:0.6606335;stroke:#000000;stroke-width:2;stroke-miterlimit:4;stroke-opacity:1;stroke-dasharray:none;stroke-dashoffset:0"
       id="path3755-6"
       sodipodi:cx="156.07942"
       sodipodi:cy="482.18457"
       sodipodi:rx="23.89966"
       sodipodi:ry="25.850653"
       d="m 179.97908,482.18457 c 0,14.27692 -10.70024,25.85065 -23.89966,25.85065 -13.19942,0 -23.89966,-11.57373 -23.89966,-25.85065 0,-14.27692 10.70024,-25.85065 23.89966,-25.85065 13.19942,0 23.89966,11.57373 23.89966,25.85065 z" />
    <path
       transform="translate(222.90091,-3.901986)"
       sodipodi:type="arc"
       style="fill:none;stroke:#000000;stroke-width:2;stroke-miterlimit:4;stroke-opacity:1;stroke-dasharray:none;stroke-dashoffset:0"
       id="path3755-76"
       sodipodi:cx="156.07942"
       sodipodi:cy="482.18457"
       sodipodi:rx="23.89966"
       sodipodi:ry="25.850653"
       d="m 179.97908,482.18457 c 0,14.27692 -10.70024,25.85065 -23.89966,25.85065 -13.19942,0 -23.89966,-11.57373 -23.89966,-25.85065 0,-14.27692 10.70024,-25.85065 23.89966,-25.85065 13.19942,0 23.89966,11.57373 23.89966,25.85065 z" />
    <path
       transform="translate(270.21248,11.218207)"
       sodipodi:type="arc"
       style="fill:none;stroke:#000000;stroke-width:2;stroke-miterlimit:4;stroke-opacity:1;stroke-dasharray:none;stroke-dashoffset:0"
       id="path3755-71"
       sodipodi:cx="156.07942"
       sodipodi:cy="482.18457"
       sodipodi:rx="23.89966"
       sodipodi:ry="25.850653"
       d="m 179.97908,482.18457 c 0,14.27692 -10.70024,25.85065 -23.89966,25.85065 -13.19942,0 -23.89966,-11.57373 -23.89966,-25.85065 0,-14.27692 10.70024,-25.85065 23.89966,-25.85065 13.19942,0 23.89966,11.57373 23.89966,25.85065 z" />
    <path
       transform="translate(279.96744,63.698054)"
       sodipodi:type="arc"
       style="fill:none;stroke:#000000;stroke-width:2;stroke-miterlimit:4;stroke-opacity:1;stroke-dasharray:none;stroke-dashoffset:0"
       id="path3755-26"
       sodipodi:cx="156.07942"
       sodipodi:cy="482.18457"
       sodipodi:rx="23.89966"
       sodipodi:ry="25.850653"
       d="m 179.97908,482.18457 a 23.89966,25.850653 0 1 1 -47.79932,0 23.89966,25.850653 0 1 1 47.79932,0 z" />
    <path
       transform="translate(241.92309,97.793508)"
       sodipodi:type="arc"
       style="fill:none;stroke:#000000;stroke-width:2;stroke-miterlimit:4;stroke-opacity:1;stroke-dasharray:none;stroke-dashoffset:0"
       id="path3755-1"
       sodipodi:cx="156.07942"
       sodipodi:cy="482.18457"
       sodipodi:rx="23.89966"
       sodipodi:ry="25.850653"
       d="m 179.97908,482.18457 a 23.89966,25.850653 0 1 1 -47.79932,0 23.89966,25.850653 0 1 1 47.79932,0 z" />
    <path
       transform="translate(192.17278,73.649977)"
       sodipodi:type="arc"
       style="fill:#ca5b5b;fill-opacity:0.66063352;stroke:#000000;stroke-width:2;stroke-miterlimit:4;stroke-opacity:1;stroke-dasharray:none;stroke-dashoffset:0"
       id="path3755-25"
       sodipodi:cx="156.07942"
       sodipodi:cy="482.18457"
       sodipodi:rx="23.89966"
       sodipodi:ry="25.850653"
       d="m 179.97908,482.18457 c 0,14.27692 -10.70024,25.85065 -23.89966,25.85065 -13.19942,0 -23.89966,-11.57373 -23.89966,-25.85065 0,-14.27692 10.70024,-25.85065 23.89966,-25.85065 13.19942,0 23.89966,11.57373 23.89966,25.85065 z" />
    <path
       transform="translate(147.29994,93.159901)"
       sodipodi:type="arc"
       style="fill:#ca5b5b;fill-opacity:0.66063352;stroke:#000000;stroke-width:2;stroke-miterlimit:4;stroke-opacity:1;stroke-dasharray:none;stroke-dashoffset:0"
       id="path3755-0"
       sodipodi:cx="156.07942"
       sodipodi:cy="482.18457"
       sodipodi:rx="23.89966"
       sodipodi:ry="25.850653"
       d="m 179.97908,482.18457 c 0,14.27692 -10.70024,25.85065 -23.89966,25.85065 -13.19942,0 -23.89966,-11.57373 -23.89966,-25.85065 0,-14.27692 10.70024,-25.85065 23.89966,-25.85065 13.19942,0 23.89966,11.57373 23.89966,25.85065 z" />
    <path
       transform="translate(98.525122,100.47612)"
       sodipodi:type="arc"
       style="fill:#ca5b5b;fill-opacity:0.66063352;stroke:#000000;stroke-width:2;stroke-miterlimit:4;stroke-opacity:1;stroke-dasharray:none;stroke-dashoffset:0"
       id="path3755-77"
       sodipodi:cx="156.07942"
       sodipodi:cy="482.18457"
       sodipodi:rx="23.89966"
       sodipodi:ry="25.850653"
       d="m 179.97908,482.18457 c 0,14.27692 -10.70024,25.85065 -23.89966,25.85065 -13.19942,0 -23.89966,-11.57373 -23.89966,-25.85065 0,-14.27692 10.70024,-25.85065 23.89966,-25.85065 13.19942,0 23.89966,11.57373 23.89966,25.85065 z" />
    <path
       transform="translate(185.3443,125.83903)"
       sodipodi:type="arc"
       style="fill:#ca5b5b;fill-opacity:0.66063352;stroke:#000000;stroke-width:2;stroke-miterlimit:4;stroke-opacity:1;stroke-dasharray:none;stroke-dashoffset:0"
       id="path3755-34"
       sodipodi:cx="156.07942"
       sodipodi:cy="482.18457"
       sodipodi:rx="23.89966"
       sodipodi:ry="25.850653"
       d="m 179.97908,482.18457 c 0,14.27692 -10.70024,25.85065 -23.89966,25.85065 -13.19942,0 -23.89966,-11.57373 -23.89966,-25.85065 0,-14.27692 10.70024,-25.85065 23.89966,-25.85065 13.19942,0 23.89966,11.57373 23.89966,25.85065 z" />
    <path
       transform="translate(229.72938,145.8367)"
       sodipodi:type="arc"
       style="fill:#ca5b5b;fill-opacity:0.66063352;stroke:#000000;stroke-width:2;stroke-miterlimit:4;stroke-opacity:1;stroke-dasharray:none;stroke-dashoffset:0"
       id="path3755-45"
       sodipodi:cx="156.07942"
       sodipodi:cy="482.18457"
       sodipodi:rx="23.89966"
       sodipodi:ry="25.850653"
       d="m 179.97908,482.18457 c 0,14.27692 -10.70024,25.85065 -23.89966,25.85065 -13.19942,0 -23.89966,-11.57373 -23.89966,-25.85065 0,-14.27692 10.70024,-25.85065 23.89966,-25.85065 13.19942,0 23.89966,11.57373 23.89966,25.85065 z" />
    <path
       transform="translate(190.70953,177.05259)"
       sodipodi:type="arc"
       style="fill:#ca5b5b;fill-opacity:0.66063352;stroke:#000000;stroke-width:2;stroke-miterlimit:4;stroke-opacity:1;stroke-dasharray:none;stroke-dashoffset:0"
       id="path3755-773"
       sodipodi:cx="156.07942"
       sodipodi:cy="482.18457"
       sodipodi:rx="23.89966"
       sodipodi:ry="25.850653"
       d="m 179.97908,482.18457 c 0,14.27692 -10.70024,25.85065 -23.89966,25.85065 -13.19942,0 -23.89966,-11.57373 -23.89966,-25.85065 0,-14.27692 10.70024,-25.85065 23.89966,-25.85065 13.19942,0 23.89966,11.57373 23.89966,25.85065 z" />
    <path
       transform="translate(235.58236,196.56251)"
       sodipodi:type="arc"
       style="fill:none;stroke:#000000;stroke-width:2;stroke-miterlimit:4;stroke-opacity:1;stroke-dasharray:none;stroke-dashoffset:0"
       id="path3755-8"
       sodipodi:cx="156.07942"
       sodipodi:cy="482.18457"
       sodipodi:rx="23.89966"
       sodipodi:ry="25.850653"
       d="m 179.97908,482.18457 c 0,14.27692 -10.70024,25.85065 -23.89966,25.85065 -13.19942,0 -23.89966,-11.57373 -23.89966,-25.85065 0,-14.27692 10.70024,-25.85065 23.89966,-25.85065 13.19942,0 23.89966,11.57373 23.89966,25.85065 z" />
    <path
       transform="translate(139.49597,143.39797)"
       sodipodi:type="arc"
       style="fill:#ca5b5b;fill-opacity:0.66063352;stroke:#000000;stroke-width:2;stroke-miterlimit:4;stroke-opacity:1;stroke-dasharray:none;stroke-dashoffset:0"
       id="path3755-91"
       sodipodi:cx="156.07942"
       sodipodi:cy="482.18457"
       sodipodi:rx="23.89966"
       sodipodi:ry="25.850653"
       d="m 179.97908,482.18457 c 0,14.27692 -10.70024,25.85065 -23.89966,25.85065 -13.19942,0 -23.89966,-11.57373 -23.89966,-25.85065 0,-14.27692 10.70024,-25.85065 23.89966,-25.85065 13.19942,0 23.89966,11.57373 23.89966,25.85065 z" />
    <path
       transform="translate(144.8612,194.61151)"
       sodipodi:type="arc"
       style="fill:#ca5b5b;fill-opacity:0.66063352;stroke:#000000;stroke-width:2;stroke-miterlimit:4;stroke-opacity:1;stroke-dasharray:none;stroke-dashoffset:0"
       id="path3755-84"
       sodipodi:cx="156.07942"
       sodipodi:cy="482.18457"
       sodipodi:rx="23.89966"
       sodipodi:ry="25.850653"
       d="m 179.97908,482.18457 c 0,14.27692 -10.70024,25.85065 -23.89966,25.85065 -13.19942,0 -23.89966,-11.57373 -23.89966,-25.85065 0,-14.27692 10.70024,-25.85065 23.89966,-25.85065 13.19942,0 23.89966,11.57373 23.89966,25.85065 z" />
    <path
       transform="translate(91.2089,151.20193)"
       sodipodi:type="arc"
       style="fill:#ca5b5b;fill-opacity:0.66063352;stroke:#000000;stroke-width:2;stroke-miterlimit:4;stroke-opacity:1;stroke-dasharray:none;stroke-dashoffset:0"
       id="path3755-5"
       sodipodi:cx="156.07942"
       sodipodi:cy="482.18457"
       sodipodi:rx="23.89966"
       sodipodi:ry="25.850653"
       d="m 179.97908,482.18457 c 0,14.27692 -10.70024,25.85065 -23.89966,25.85065 -13.19942,0 -23.89966,-11.57373 -23.89966,-25.85065 0,-14.27692 10.70024,-25.85065 23.89966,-25.85065 13.19942,0 23.89966,11.57373 23.89966,25.85065 z" />
    <path
       transform="translate(54.627788,117.54731)"
       sodipodi:type="arc"
       style="fill:none;stroke:#000000;stroke-width:2;stroke-miterlimit:4;stroke-opacity:1;stroke-dasharray:none;stroke-dashoffset:0"
       id="path3755-917"
       sodipodi:cx="156.07942"
       sodipodi:cy="482.18457"
       sodipodi:rx="23.89966"
       sodipodi:ry="25.850653"
       d="m 179.97908,482.18457 c 0,14.27692 -10.70024,25.85065 -23.89966,25.85065 -13.19942,0 -23.89966,-11.57373 -23.89966,-25.85065 0,-14.27692 10.70024,-25.85065 23.89966,-25.85065 13.19942,0 23.89966,11.57373 23.89966,25.85065 z" />
    <path
       transform="translate(6.3407188,106.81685)"
       sodipodi:type="arc"
       style="fill:none;stroke:#000000;stroke-width:2;stroke-miterlimit:4;stroke-opacity:1;stroke-dasharray:none;stroke-dashoffset:0"
       id="path3755-16"
       sodipodi:cx="156.07942"
       sodipodi:cy="482.18457"
       sodipodi:rx="23.89966"
       sodipodi:ry="25.850653"
       d="m 179.97908,482.18457 c 0,14.27692 -10.70024,25.85065 -23.89966,25.85065 -13.19942,0 -23.89966,-11.57373 -23.89966,-25.85065 0,-14.27692 10.70024,-25.85065 23.89966,-25.85065 13.19942,0 23.89966,11.57373 23.89966,25.85065 z" />
    <path
       transform="translate(44.872825,168.27312)"
       sodipodi:type="arc"
       style="fill:none;stroke:#000000;stroke-width:2;stroke-miterlimit:4;stroke-opacity:1;stroke-dasharray:none;stroke-dashoffset:0"
       id="path3755-38"
       sodipodi:cx="156.07942"
       sodipodi:cy="482.18457"
       sodipodi:rx="23.89966"
       sodipodi:ry="25.850653"
       d="m 179.97908,482.18457 c 0,14.27692 -10.70024,25.85065 -23.89966,25.85065 -13.19942,0 -23.89966,-11.57373 -23.89966,-25.85065 0,-14.27692 10.70024,-25.85065 23.89966,-25.85065 13.19942,0 23.89966,11.57373 23.89966,25.85065 z" />
    <path
       transform="translate(81.453937,201.92774)"
       sodipodi:type="arc"
       style="fill:#ca5b5b;fill-opacity:0.66063352;stroke:#000000;stroke-width:2;stroke-miterlimit:4;stroke-opacity:1;stroke-dasharray:none;stroke-dashoffset:0"
       id="path3755-33"
       sodipodi:cx="156.07942"
       sodipodi:cy="482.18457"
       sodipodi:rx="23.89966"
       sodipodi:ry="25.850653"
       d="m 179.97908,482.18457 c 0,14.27692 -10.70024,25.85065 -23.89966,25.85065 -13.19942,0 -23.89966,-11.57373 -23.89966,-25.85065 0,-14.27692 10.70024,-25.85065 23.89966,-25.85065 13.19942,0 23.89966,11.57373 23.89966,25.85065 z" />
    <path
       transform="translate(116.57181,238.02111)"
       sodipodi:type="arc"
       style="fill:none;stroke:#000000;stroke-width:2;stroke-miterlimit:4;stroke-opacity:1;stroke-dasharray:none;stroke-dashoffset:0"
       id="path3755-17"
       sodipodi:cx="156.07942"
       sodipodi:cy="482.18457"
       sodipodi:rx="23.89966"
       sodipodi:ry="25.850653"
       d="m 179.97908,482.18457 c 0,14.27692 -10.70024,25.85065 -23.89966,25.85065 -13.19942,0 -23.89966,-11.57373 -23.89966,-25.85065 0,-14.27692 10.70024,-25.85065 23.89966,-25.85065 13.19942,0 23.89966,11.57373 23.89966,25.85065 z" />
    <path
       transform="translate(165.34662,241.43534)"
       sodipodi:type="arc"
       style="fill:none;stroke:#000000;stroke-width:2;stroke-miterlimit:4;stroke-opacity:1;stroke-dasharray:none;stroke-dashoffset:0"
       id="path3755-14"
       sodipodi:cx="156.07942"
       sodipodi:cy="482.18457"
       sodipodi:rx="23.89966"
       sodipodi:ry="25.850653"
       d="m 179.97908,482.18457 c 0,14.27692 -10.70024,25.85065 -23.89966,25.85065 -13.19942,0 -23.89966,-11.57373 -23.89966,-25.85065 0,-14.27692 10.70024,-25.85065 23.89966,-25.85065 13.19942,0 23.89966,11.57373 23.89966,25.85065 z" />
    <path
       transform="translate(214.12144,244.36184)"
       sodipodi:type="arc"
       style="fill:none;stroke:#000000;stroke-width:2;stroke-miterlimit:4;stroke-opacity:1;stroke-dasharray:none;stroke-dashoffset:0"
       id="path3755-96"
       sodipodi:cx="156.07942"
       sodipodi:cy="482.18457"
       sodipodi:rx="23.89966"
       sodipodi:ry="25.850653"
       d="m 179.97908,482.18457 c 0,14.27692 -10.70024,25.85065 -23.89966,25.85065 -13.19942,0 -23.89966,-11.57373 -23.89966,-25.85065 0,-14.27692 10.70024,-25.85065 23.89966,-25.85065 13.19942,0 23.89966,11.57373 23.89966,25.85065 z" />
    <path
       transform="translate(275.08996,166.32212)"
       sodipodi:type="arc"
       style="fill:none;stroke:#000000;stroke-width:2;stroke-miterlimit:4;stroke-opacity:1;stroke-dasharray:none;stroke-dashoffset:0"
       id="path3755-56"
       sodipodi:cx="156.07942"
       sodipodi:cy="482.18457"
       sodipodi:rx="23.89966"
       sodipodi:ry="25.850653"
       d="m 179.97908,482.18457 c 0,14.27692 -10.70024,25.85065 -23.89966,25.85065 -13.19942,0 -23.89966,-11.57373 -23.89966,-25.85065 0,-14.27692 10.70024,-25.85065 23.89966,-25.85065 13.19942,0 23.89966,11.57373 23.89966,25.85065 z" />
    <path
       transform="translate(279.96744,218.99892)"
       sodipodi:type="arc"
       style="fill:none;stroke:#000000;stroke-width:2;stroke-miterlimit:4;stroke-opacity:1;stroke-dasharray:none;stroke-dashoffset:0"
       id="path3755-48"
       sodipodi:cx="156.07942"
       sodipodi:cy="482.18457"
       sodipodi:rx="23.89966"
       sodipodi:ry="25.850653"
       d="m 179.97908,482.18457 c 0,14.27692 -10.70024,25.85065 -23.89966,25.85065 -13.19942,0 -23.89966,-11.57373 -23.89966,-25.85065 0,-14.27692 10.70024,-25.85065 23.89966,-25.85065 13.19942,0 23.89966,11.57373 23.89966,25.85065 z" />
    <path
       transform="translate(287.28366,115.59632)"
       sodipodi:type="arc"
       style="fill:none;stroke:#000000;stroke-width:2;stroke-miterlimit:4;stroke-opacity:1;stroke-dasharray:none;stroke-dashoffset:0"
       id="path3755-20"
       sodipodi:cx="156.07942"
       sodipodi:cy="482.18457"
       sodipodi:rx="23.89966"
       sodipodi:ry="25.850653"
       d="m 179.97908,482.18457 c 0,14.27692 -10.70024,25.85065 -23.89966,25.85065 -13.19942,0 -23.89966,-11.57373 -23.89966,-25.85065 0,-14.27692 10.70024,-25.85065 23.89966,-25.85065 13.19942,0 23.89966,11.57373 23.89966,25.85065 z" />
    <path
       transform="translate(-2.9264941,157.05491)"
       sodipodi:type="arc"
       style="fill:none;stroke:#000000;stroke-width:2;stroke-miterlimit:4;stroke-opacity:1;stroke-dasharray:none;stroke-dashoffset:0"
       id="path3755-51"
       sodipodi:cx="156.07942"
       sodipodi:cy="482.18457"
       sodipodi:rx="23.89966"
       sodipodi:ry="25.850653"
       d="m 179.97908,482.18457 c 0,14.27692 -10.70024,25.85065 -23.89966,25.85065 -13.19942,0 -23.89966,-11.57373 -23.89966,-25.85065 0,-14.27692 10.70024,-25.85065 23.89966,-25.85065 13.19942,0 23.89966,11.57373 23.89966,25.85065 z" />
    <path
       transform="translate(36.581106,220.46217)"
       sodipodi:type="arc"
       style="fill:none;stroke:#000000;stroke-width:2;stroke-miterlimit:4;stroke-opacity:1;stroke-dasharray:none;stroke-dashoffset:0"
       id="path3755-78"
       sodipodi:cx="156.07942"
       sodipodi:cy="482.18457"
       sodipodi:rx="23.89966"
       sodipodi:ry="25.850653"
       d="m 179.97908,482.18457 c 0,14.27692 -10.70024,25.85065 -23.89966,25.85065 -13.19942,0 -23.89966,-11.57373 -23.89966,-25.85065 0,-14.27692 10.70024,-25.85065 23.89966,-25.85065 13.19942,0 23.89966,11.57373 23.89966,25.85065 z" />
    <path
       transform="translate(71.211226,257.53103)"
       sodipodi:type="arc"
       style="fill:none;stroke:#000000;stroke-width:2;stroke-miterlimit:4;stroke-opacity:1;stroke-dasharray:none;stroke-dashoffset:0"
       id="path3755-98"
       sodipodi:cx="156.07942"
       sodipodi:cy="482.18457"
       sodipodi:rx="23.89966"
       sodipodi:ry="25.850653"
       d="m 179.97908,482.18457 c 0,14.27692 -10.70024,25.85065 -23.89966,25.85065 -13.19942,0 -23.89966,-11.57373 -23.89966,-25.85065 0,-14.27692 10.70024,-25.85065 23.89966,-25.85065 13.19942,0 23.89966,11.57373 23.89966,25.85065 z" />
    <path
       sodipodi:type="arc"
       style="fill:#ca5b5b;fill-opacity:0.66063352;stroke:#000000;stroke-width:2;stroke-miterlimit:4;stroke-opacity:1;stroke-dasharray:none;stroke-dashoffset:0"
       id="path4311"
       sodipodi:cx="396.78314"
       sodipodi:cy="152.95807"
       sodipodi:rx="1.2193705"
       sodipodi:ry="1.2193705"
       d="m 398.00251,152.95807 a 1.2193705,1.2193705 0 1 1 -2.43874,0 1.2193705,1.2193705 0 1 1 2.43874,0 z"
       transform="translate(-0.75612159,382.41557)" />
    <path
       sodipodi:type="arc"
       style="fill:#ca5b5b;fill-opacity:0.66063352;stroke:#000000;stroke-width:2;stroke-miterlimit:4;stroke-opacity:1;stroke-dasharray:none;stroke-dashoffset:0"
       id="path4311-1"
       sodipodi:cx="396.78314"
       sodipodi:cy="152.95807"
       sodipodi:rx="1.2193705"
       sodipodi:ry="1.2193705"
       d="m 398.00251,152.95807 a 1.2193705,1.2193705 0 1 1 -2.43874,0 1.2193705,1.2193705 0 1 1 2.43874,0 z"
       transform="translate(-20.509926,361.93014)" />
    <path
       sodipodi:type="arc"
       style="fill:#ca5b5b;fill-opacity:0.66063352;stroke:#000000;stroke-width:2;stroke-miterlimit:4;stroke-opacity:1;stroke-dasharray:none;stroke-dashoffset:0"
       id="path4311-0"
       sodipodi:cx="396.78314"
       sodipodi:cy="152.95807"
       sodipodi:rx="1.2193705"
       sodipodi:ry="1.2193705"
       d="m 398.00251,152.95807 a 1.2193705,1.2193705 0 1 1 -2.43874,0 1.2193705,1.2193705 0 1 1 2.43874,0 z"
       transform="translate(8.3891528,389.24402)" />
    <path
       sodipodi:type="arc"
       style="fill:#ca5b5b;fill-opacity:0.66063352;stroke:#000000;stroke-width:2;stroke-miterlimit:4;stroke-opacity:1;stroke-dasharray:none;stroke-dashoffset:0"
       id="path4311-4"
       sodipodi:cx="396.78314"
       sodipodi:cy="152.95807"
       sodipodi:rx="1.2193705"
       sodipodi:ry="1.2193705"
       d="m 398.00251,152.95807 a 1.2193705,1.2193705 0 1 1 -2.43874,0 1.2193705,1.2193705 0 1 1 2.43874,0 z"
       transform="translate(7.6575306,362.90563)" />
    <path
       sodipodi:type="arc"
       style="fill:#ca5b5b;fill-opacity:0.66063352;stroke:#000000;stroke-width:2;stroke-miterlimit:4;stroke-opacity:1;stroke-dasharray:none;stroke-dashoffset:0"
       id="path4311-6"
       sodipodi:cx="396.78314"
       sodipodi:cy="152.95807"
       sodipodi:rx="1.2193705"
       sodipodi:ry="1.2193705"
       d="m 398.00251,152.95807 a 1.2193705,1.2193705 0 1 1 -2.43874,0 1.2193705,1.2193705 0 1 1 2.43874,0 z"
       transform="translate(-20.022178,389.73178)" />
    <path
       style="fill:none;stroke:#000000;stroke-width:1;stroke-linecap:butt;stroke-linejoin:miter;stroke-miterlimit:4;stroke-opacity:1;stroke-dasharray:1, 1;stroke-dashoffset:0"
       d="m 389.80823,503.30419 0.12194,51.57937"
       id="path4354"
       inkscape:connector-curvature="0" />
    <path
       style="fill:none;stroke:#000000;stroke-width:1;stroke-linecap:butt;stroke-linejoin:miter;stroke-miterlimit:4;stroke-opacity:1;stroke-dasharray:1, 1;stroke-dashoffset:0"
       d="m 366.03051,528.54516 48.28707,0.24387"
       id="path4356"
       inkscape:connector-curvature="0" />
    <path
       transform="matrix(0.6134219,0,0,0.6134219,294.58873,233.38748)"
       sodipodi:type="arc"
       style="fill:none;stroke:#000000;stroke-width:2;stroke-miterlimit:4;stroke-opacity:1;stroke-dasharray:2.00000004, 2.00000004;stroke-dashoffset:0"
       id="path3755-71-1"
       sodipodi:cx="156.07942"
       sodipodi:cy="482.18457"
       sodipodi:rx="23.89966"
       sodipodi:ry="25.850653"
       d="m 179.97908,482.18457 a 23.89966,25.850653 0 1 1 -47.79932,0 23.89966,25.850653 0 1 1 47.79932,0 z" />
    <path
       sodipodi:type="arc"
       style="fill:#ca5b5b;fill-opacity:0.66063352;stroke:#000000;stroke-width:2;stroke-miterlimit:4;stroke-opacity:1;stroke-dasharray:none;stroke-dashoffset:0"
       id="path4311-66"
       sodipodi:cx="396.78314"
       sodipodi:cy="152.95807"
       sodipodi:rx="1.2193705"
       sodipodi:ry="1.2193705"
       d="m 398.00251,152.95807 a 1.2193705,1.2193705 0 1 1 -2.43874,0 1.2193705,1.2193705 0 1 1 2.43874,0 z"
       transform="translate(-0.87806257,369.49023)" />
    <path
       sodipodi:type="arc"
       style="fill:#ca5b5b;fill-opacity:0.66063352;stroke:#000000;stroke-width:2;stroke-miterlimit:4;stroke-opacity:1;stroke-dasharray:none;stroke-dashoffset:0"
       id="path4311-2"
       sodipodi:cx="396.78314"
       sodipodi:cy="152.95807"
       sodipodi:rx="1.2193705"
       sodipodi:ry="1.2193705"
       d="m 398.00251,152.95807 a 1.2193705,1.2193705 0 1 1 -2.43874,0 1.2193705,1.2193705 0 1 1 2.43874,0 z"
       transform="translate(-12.58402,369.12442)" />
    <path
       sodipodi:type="arc"
       style="fill:#ca5b5b;fill-opacity:0.66063352;stroke:#000000;stroke-width:2;stroke-miterlimit:4;stroke-opacity:1;stroke-dasharray:none;stroke-dashoffset:0"
       id="path4311-41"
       sodipodi:cx="396.78314"
       sodipodi:cy="152.95807"
       sodipodi:rx="1.2193705"
       sodipodi:ry="1.2193705"
       d="m 398.00251,152.95807 a 1.2193705,1.2193705 0 1 1 -2.43874,0 1.2193705,1.2193705 0 1 1 2.43874,0 z"
       transform="translate(-12.827892,382.17168)" />
    <text
       xml:space="preserve"
       style="font-size:14px;font-style:normal;font-variant:normal;font-weight:normal;font-stretch:normal;line-height:125%;letter-spacing:0px;word-spacing:0px;fill:#000000;fill-opacity:1;stroke:none;font-family:Futura LT;-inkscape-font-specification:Futura LT"
       x="423.82864"
       y="494.40277"
       id="text4457"
       sodipodi:linespacing="125%"><tspan
         sodipodi:role="line"
         id="tspan4459"
         x="423.82864"
         y="494.40277">A</tspan></text>
    <path
       style="fill:none;stroke:#000000;stroke-width:1px;stroke-linecap:butt;stroke-linejoin:miter;stroke-opacity:1;marker-end:url(#Arrow1Mend)"
       d="M 294.5999,48.823826 282.89394,66.870509"
       id="path4461"
       inkscape:connector-curvature="0"
       transform="translate(128.25327,446.55445)"
       sodipodi:nodetypes="cc" />
    <path
       style="fill:#ffffff;fill-opacity:0.66063352;stroke:#000000;stroke-width:0.08072153;stroke-miterlimit:4;stroke-opacity:1;stroke-dasharray:0.08072153, 0.08072153;stroke-dashoffset:0"
       d="m 255.94921,97.635743 c -0.27267,-0.138952 -0.49577,-0.274209 -0.49577,-0.300571 0,-0.04136 0.4114,-0.789573 0.48981,-0.890818 0.0208,-0.02689 0.6245,0.216846 0.95526,0.38569 0.0293,0.01494 -0.33801,0.926544 -0.40334,1.001082 -0.0276,0.03149 -0.27328,-0.05643 -0.54596,-0.195383 z"
       id="path7960"
       inkscape:connector-curvature="0"
       transform="translate(128.25327,446.55445)" />
    <path
       style="fill:none;stroke:#000000;stroke-width:1px;stroke-linecap:butt;stroke-linejoin:miter;stroke-opacity:1"
       d="m 238.06035,82.210128 23.62497,-0.172445 -0.17245,26.384087 -10.51914,-3.10401 -9.22581,-8.708473 -3.79379,-13.881824"
       id="path7964"
       inkscape:connector-curvature="0"
       transform="translate(128.25327,446.55445)" />
    <path
       style="fill:#ca5b5b;fill-opacity:0.65882562;stroke:#000000;stroke-width:0.08072153;stroke-miterlimit:4;stroke-opacity:1;stroke-dasharray:0.08072153, 0.08072153;stroke-dashoffset:0"
       d="m 259.46278,107.11446 c -0.41089,-0.0466 -1.77045,-0.39356 -3.36268,-0.85817 -2.18009,-0.63614 -2.86426,-0.87409 -3.71085,-1.29057 -1.83363,-0.90208 -2.34872,-1.29933 -5.29,-4.07983 -2.85894,-2.702649 -3.20115,-3.093303 -4.2745,-4.879583 -1.15081,-1.915187 -1.2284,-2.123646 -2.45539,-6.597084 -1.04492,-3.809607 -1.14116,-4.22306 -1.21403,-5.2154 -0.0435,-0.59278 -0.0803,-1.165082 -0.0817,-1.271782 l -0.003,-0.194001 3.82518,0 3.82518,0 0.0548,0.400036 c 0.0302,0.220019 0.0548,0.51102 0.0548,0.646669 0,0.275712 0.0462,0.286191 0.84067,0.190762 l 0.45267,-0.05437 0,-0.591548 0,-0.591548 0.36645,-0.01057 c 0.20154,-0.0058 2.69192,-0.0054 5.53417,8.66e-4 3.67502,0.0081 5.18465,-0.01595 5.22631,-0.08336 0.0425,-0.06867 0.28754,-0.06598 0.88941,0.0098 l 0.83082,0.104576 0.005,0.959357 c 0.003,0.527646 0.0373,1.269758 0.0771,1.649137 0.0426,0.405651 0.0403,0.70988 -0.006,0.738577 -0.0454,0.02839 -0.0732,2.192176 -0.0664,5.173351 0.006,2.818505 0.007,5.425254 9.6e-4,5.792778 l -0.0107,0.668224 -0.29256,0 c -0.33734,0 -0.36474,0.04726 -0.44653,0.770181 l -0.0592,0.523157 0.39056,0 0.39056,0 0.0312,0.797558 c 0.0171,0.438657 0.0164,2.281667 -0.002,4.095567 l -0.0329,3.29801 -0.39925,-0.0113 c -0.21959,-0.006 -0.70965,-0.0465 -1.08903,-0.0895 z m -0.35902,-8.865066 c 0.0789,-0.283818 0.14347,-0.570511 0.14347,-0.637094 0,-0.149336 -1.09086,-0.464675 -1.2037,-0.347956 -0.10099,0.104472 -0.35395,1.09295 -0.29494,1.152523 0.0502,0.05067 0.96478,0.330054 1.11805,0.341542 0.0515,0.0039 0.15821,-0.225197 0.23712,-0.509015 l 0,0 z m -9.97433,0.04266 c 1.00189,-0.297528 1.6141,-1.115437 1.6141,-2.156413 0,-1.054985 -0.61693,-1.865507 -1.64811,-2.165279 -1.54272,-0.448481 -3.06021,0.909494 -2.81838,2.522117 0.0894,0.596143 0.52602,1.237068 1.0602,1.556275 0.64502,0.38544 1.10382,0.447725 1.79219,0.2433 l 0,0 z m 7.6277,-0.780153 c 0.0896,-0.235297 0.18429,-0.494094 0.21032,-0.575104 0.0361,-0.112446 -0.0756,-0.209337 -0.47222,-0.409557 -0.28575,-0.144246 -0.53949,-0.262265 -0.56387,-0.262265 -0.0592,0 -0.56415,1.004422 -0.56415,1.122095 0,0.100826 1.03138,0.617635 1.15235,0.577427 0.041,-0.01363 0.14792,-0.217299 0.23757,-0.452596 l 0,0 z m -2.12905,-1.23665 c 0.16941,-0.278882 0.30802,-0.528014 0.30802,-0.553627 0,-0.02562 -0.21861,-0.201652 -0.48579,-0.391197 l -0.4858,-0.344627 -0.4113,0.488698 c -0.3228,0.383533 -0.3903,0.514242 -0.3137,0.607401 0.11364,0.138201 0.93316,0.700411 1.02097,0.700411 0.0328,0 0.19819,-0.228176 0.3676,-0.507059 z m -1.52347,-1.992845 c -0.0123,-0.02585 -0.22752,-0.237282 -0.47835,-0.469857 l -0.45607,-0.422862 -0.42772,0.421288 c -0.23524,0.231708 -0.42771,0.467754 -0.42771,0.524544 0,0.05679 0.2037,0.279407 0.45266,0.494702 l 0.45267,0.391445 0.45341,-0.446133 c 0.24937,-0.245373 0.44337,-0.46728 0.43111,-0.493127 l 0,0 z m -1.9713,-1.393363 0.36553,-0.315033 -0.32411,-0.460969 c -0.17825,-0.253534 -0.33761,-0.478669 -0.35411,-0.5003 -0.0456,-0.05972 -0.58175,0.246985 -0.87846,0.502487 l -0.26317,0.226622 0.39248,0.539783 c 0.43854,0.603133 0.37117,0.602663 1.06184,0.0074 l 0,4e-6 z m -1.48175,-1.933696 c 0.30362,-0.169798 0.53993,-0.334698 0.52512,-0.366446 -0.0663,-0.142226 -0.52337,-1.008971 -0.5449,-1.033356 -0.0632,-0.07155 -1.16058,0.473363 -1.16141,0.576693 -9.9e-4,0.122163 0.52771,1.131831 0.59266,1.131831 0.0201,0 0.2849,-0.138925 0.58853,-0.308722 z m 6.96588,-0.326406 c 1.09256,-0.512764 1.59282,-1.685761 1.20471,-2.824797 -0.50632,-1.485958 -2.52649,-1.960404 -3.69451,-0.867673 -0.55832,0.522326 -0.83361,1.690796 -0.56628,2.403534 0.46096,1.228976 1.89507,1.833825 3.05608,1.288936 z m -8.05699,-1.877654 c 0.3056,-0.101626 0.56932,-0.196148 0.58605,-0.210049 0.0253,-0.02099 -0.32029,-1.15531 -0.37204,-1.22125 -0.0248,-0.03158 -1.11464,0.336875 -1.18717,0.401352 -0.0679,0.06038 0.27954,1.214721 0.36563,1.214721 0.0285,0 0.30193,-0.08315 0.60753,-0.184774 z m -0.40478,-2.413073 c 0.31665,-0.08262 0.33024,-0.100286 0.27793,-0.361181 -0.0303,-0.150874 -0.079,-0.423738 -0.10823,-0.606366 l -0.0532,-0.332049 -0.56959,0.0606 c -0.31327,0.03333 -0.60303,0.08102 -0.6439,0.105986 -0.0701,0.04278 -0.0185,0.686975 0.0904,1.130115 0.0533,0.216814 0.18531,0.217194 1.00666,0.0029 l 0,0 z"
       id="path7966"
       inkscape:connector-curvature="0"
       transform="translate(128.25327,446.55445)" />
  </g>
</svg>
